<svg xmlns="http://www.w3.org/2000/svg" width="279.656" height="102.137" viewBox="0 0 279.656 102.137">
  <g id="Group_107" data-name="Group 107" transform="translate(-1506.166 -940.863)">
    <g id="Group_76" data-name="Group 76" transform="translate(1639.638 940.863)">
      <path id="Path_22" data-name="Path 22" d="M104.417,37.664h0Z" transform="translate(0 -37.567)" fill="#e8bf7c"/>
      <rect id="Rectangle_2" data-name="Rectangle 2" width="83.534" height="101.457" transform="translate(62.65)" fill="#e8bf7c"/>
      <rect id="Rectangle_3" data-name="Rectangle 3" width="12.831" height="83.534" transform="translate(146.184 44.313) rotate(90)" fill="#d0a569"/>
      <rect id="Rectangle_4" data-name="Rectangle 4" width="17.428" height="12.831" transform="translate(95.703 44.313)" fill="#ab7a45"/>
      <rect id="Rectangle_5" data-name="Rectangle 5" width="12.831" height="101.457" transform="translate(98.001)" fill="#d0a569"/>
      <rect id="Rectangle_6" data-name="Rectangle 6" width="62.65" height="101.457" transform="translate(0)" fill="#d0a56b"/>
      <rect id="Rectangle_7" data-name="Rectangle 7" width="12.831" height="62.65" transform="translate(62.65 44.313) rotate(90)" fill="#ab7a45"/>
      <rect id="Rectangle_8" data-name="Rectangle 8" width="17.428" height="12.831" transform="translate(22.864 44.313)" fill="#986e3e"/>
      <path id="Path_8" data-name="Path 8" d="M395.379,285.457h0Z" transform="translate(-332.728 -285.361)" fill="#a87944"/>
      <rect id="Rectangle_9" data-name="Rectangle 9" width="12.831" height="101.457" transform="translate(25.163 0)" fill="#ab7a45"/>
      <path id="Path_9" data-name="Path 9" d="M371.013,285.356h0Z" transform="translate(-333.019 -285.356)" fill="#986e3e"/>
      <path id="Path_10" data-name="Path 10" d="M177.3,285.356h0Z" transform="translate(-114.647 -285.356)" fill="#d0a56b"/>
      <path id="Path_11" data-name="Path 11" d="M216.977,285.356h0Z" transform="translate(-118.976 -285.356)" fill="#ab7a45"/>
    </g>
    <g id="Group_77" data-name="Group 77" transform="translate(1550.656 981.208)">
      <path id="Path_22-2" data-name="Path 22" d="M63.956,37.664h0Z" transform="translate(0 -37.604)" fill="#e8bf7c"/>
      <rect id="Rectangle_2-2" data-name="Rectangle 2" width="51.165" height="61.792" transform="translate(38.373)" fill="#e8bf7c"/>
      <rect id="Rectangle_3-2" data-name="Rectangle 3" width="7.859" height="51.165" transform="translate(89.538 26.967) rotate(90)" fill="#d0a569"/>
      <rect id="Rectangle_4-2" data-name="Rectangle 4" width="10.675" height="7.859" transform="translate(58.618 26.967)" fill="#ab7a45"/>
      <rect id="Rectangle_5-2" data-name="Rectangle 5" width="7.859" height="61.792" transform="translate(60.026)" fill="#d0a569"/>
      <rect id="Rectangle_6-2" data-name="Rectangle 6" width="38.373" height="61.792" transform="translate(0)" fill="#d0a56b"/>
      <rect id="Rectangle_7-2" data-name="Rectangle 7" width="7.859" height="38.373" transform="translate(38.373 26.967) rotate(90)" fill="#ab7a45"/>
      <rect id="Rectangle_8-2" data-name="Rectangle 8" width="10.675" height="7.859" transform="translate(14.005 26.967)" fill="#986e3e"/>
      <path id="Path_8-2" data-name="Path 8" d="M371.1,285.457h0Z" transform="translate(-332.728 -285.398)" fill="#a87944"/>
      <rect id="Rectangle_9-2" data-name="Rectangle 9" width="7.859" height="61.792" transform="translate(15.412 0)" fill="#ab7a45"/>
      <path id="Path_9-2" data-name="Path 9" d="M366.041,285.356h0Z" transform="translate(-342.769 -285.356)" fill="#986e3e"/>
      <path id="Path_10-2" data-name="Path 10" d="M153.183,285.356h0Z" transform="translate(-114.81 -285.356)" fill="#d0a56b"/>
      <path id="Path_11-2" data-name="Path 11" d="M216.977,285.356h0Z" transform="translate(-156.951 -285.356)" fill="#ab7a45"/>
    </g>
    <g id="Group_78" data-name="Group 78" transform="translate(1506.166 1012.104)">
      <path id="Path_22-3" data-name="Path 22" d="M31.978,37.664h0Z" transform="translate(0 -37.634)" fill="#e8bf7c"/>
      <rect id="Rectangle_2-3" data-name="Rectangle 2" width="25.582" height="30.896" transform="translate(19.187)" fill="#e8bf7c"/>
      <rect id="Rectangle_3-3" data-name="Rectangle 3" width="3.93" height="25.582" transform="translate(44.769 13.483) rotate(90)" fill="#d0a569"/>
      <rect id="Rectangle_4-3" data-name="Rectangle 4" width="5.337" height="3.93" transform="translate(29.309 13.483)" fill="#ab7a45"/>
      <rect id="Rectangle_5-3" data-name="Rectangle 5" width="3.93" height="30.896" transform="translate(30.013)" fill="#d0a569"/>
      <rect id="Rectangle_6-3" data-name="Rectangle 6" width="19.187" height="30.896" transform="translate(0)" fill="#d0a56b"/>
      <rect id="Rectangle_7-3" data-name="Rectangle 7" width="3.93" height="19.187" transform="translate(19.187 13.483) rotate(90)" fill="#ab7a45"/>
      <rect id="Rectangle_8-3" data-name="Rectangle 8" width="5.337" height="3.93" transform="translate(7.002 13.483)" fill="#986e3e"/>
      <path id="Path_8-3" data-name="Path 8" d="M351.915,285.457h0Z" transform="translate(-332.728 -285.427)" fill="#a87944"/>
      <rect id="Rectangle_9-3" data-name="Rectangle 9" width="3.93" height="30.896" transform="translate(7.706 0)" fill="#ab7a45"/>
      <path id="Path_9-3" data-name="Path 9" d="M362.111,285.356h0Z" transform="translate(-350.475 -285.356)" fill="#986e3e"/>
      <path id="Path_10-3" data-name="Path 10" d="M134.126,285.356h0Z" transform="translate(-114.94 -285.356)" fill="#d0a56b"/>
      <path id="Path_11-3" data-name="Path 11" d="M216.977,285.356h0Z" transform="translate(-186.964 -285.356)" fill="#ab7a45"/>
    </g>
  </g>
</svg>
