<svg xmlns="http://www.w3.org/2000/svg" xmlns:xlink="http://www.w3.org/1999/xlink" width="145.819" height="152.247" viewBox="0 0 145.819 152.247">
  <defs>
    <linearGradient id="linear-gradient" x1="0.241" y1="0.119" x2="0.71" y2="0.998" gradientUnits="objectBoundingBox">
      <stop offset="0" stop-color="#fbc800"/>
      <stop offset="1" stop-color="#fff"/>
    </linearGradient>
    <linearGradient id="linear-gradient-2" x1="0.241" y1="0.119" x2="0.71" y2="0.998" xlink:href="#linear-gradient"/>
    <linearGradient id="linear-gradient-3" x1="0.241" y1="0.119" x2="0.709" y2="0.998" xlink:href="#linear-gradient"/>
    <linearGradient id="linear-gradient-4" x1="0.241" y1="0.119" x2="0.71" y2="0.999" xlink:href="#linear-gradient"/>
    <linearGradient id="linear-gradient-5" x1="0.249" y1="-0.146" x2="0.751" y2="1.146" xlink:href="#linear-gradient"/>
  </defs>
  <g id="Group_113" data-name="Group 113" transform="translate(-294.657 -257.32)">
    <g id="Group_93" data-name="Group 93" transform="translate(338.226 341.319)">
      <g id="Group_47" data-name="Group 47" transform="translate(0 0)">
        <path id="Path_119" data-name="Path 119" d="M399.626,76.262V107.4l-16.07-9.278-4.178-2.413-11.892-6.865V57.706l11.892,6.865,4.178,2.413Z" transform="translate(-367.487 -39.15)" fill="#cdad8a"/>
        <path id="Path_120" data-name="Path 120" d="M447.3,57.706V88.842l-12.29,7.1-4.178,2.409-15.672,9.05V76.262l15.672-9.05,4.178-2.409Z" transform="translate(-383.024 -39.15)" fill="#a48465"/>
        <path id="Path_121" data-name="Path 121" d="M431.765,48.735,399.626,67.291l-15.95-9.212h0l-4.178-2.409-12.008-6.934,15.753-9.1,4.182-2.413,12.2-7.046,12.008,6.934,4.178,2.409Z" transform="translate(-367.487 -30.179)" fill="#f0cfa8"/>
        <path id="Path_122" data-name="Path 122" d="M389.305,70.3v31.135l-4.178-2.413V67.89Z" transform="translate(-373.236 -42.469)" fill="#e0c5a4"/>
        <path id="Path_123" data-name="Path 123" d="M427.037,59.256l-4.178,2.413-15.869-9.162-4.182-2.413-12.119-6.983,4.181-2.413,12.119,6.983,4.178,2.413Z" transform="translate(-375.049 -33.607)" fill="#f0dcc5"/>
        <path id="Path_124" data-name="Path 124" d="M421.487,42.8l-12.2,7.05L405.1,52.265h0l-15.749,9.093h0l-.116.069-4.178-2.413.116-.066,15.753-9.1,4.182-2.413,12.2-7.046Z" transform="translate(-373.212 -33.507)" fill="#f0dcc5"/>
        <g id="Group_21" data-name="Group 21" transform="translate(32.579 19.333)">
          <path id="Path_125" data-name="Path 125" d="M447.068,59.171l-31.107,17.96c-.08.047-.145.019-.145-.061a.3.3,0,0,1,.145-.229l31.107-17.96c.079-.046.145-.019.145.061A.3.3,0,0,1,447.068,59.171Z" transform="translate(-415.816 -58.859)" fill="#8f6e4f"/>
        </g>
        <path id="Path_126" data-name="Path 126" d="M442.589,68.233V99.369l-4.178,2.409V70.643Z" transform="translate(-390.6 -42.581)" fill="#bb9673"/>
        <g id="Group_22" data-name="Group 22" transform="translate(17.722 8.301)">
          <path id="Path_127" data-name="Path 127" d="M425.751,61a.42.42,0,0,1-.378,0c-7.629-4.367-24.583-14.212-31.518-18.241a.115.115,0,0,1,0-.218h0a.419.419,0,0,1,.379,0c6.935,4.03,23.888,13.874,31.515,18.24a.116.116,0,0,1,0,.219Z" transform="translate(-393.777 -42.493)" fill="#e6d3bd"/>
        </g>
        <g id="Group_46" data-name="Group 46" transform="translate(53.344 22.229)">
          <g id="Group_33" data-name="Group 33" transform="translate(4.902)">
            <g id="Group_31" data-name="Group 31" transform="translate(0.819 1.168)">
              <g id="Group_23" data-name="Group 23" transform="translate(0 1.441)">
                <path id="Path_128" data-name="Path 128" d="M456.459,67.26a1.284,1.284,0,0,0,0-.235,1.641,1.641,0,0,0-.206.337c0,.009,0,.017-.007.025a2.45,2.45,0,0,0-1.138,1.769l.01-.006a.406.406,0,0,1,.172-.245c.08-.047.148-.024.171.048l.02-.012a.406.406,0,0,1,.172-.245c.079-.047.148-.024.172.047l.02-.011a.412.412,0,0,1,.172-.246c.08-.046.148-.024.172.048l.02-.011a.427.427,0,0,1,.079-.162v1.4a.254.254,0,0,1-.113.2c-.062.036-.113,0-.113-.069v-.225c0-.061-.041-.086-.092-.057a.206.206,0,0,0-.092.164V70c0,.2.134.278.3.183a.671.671,0,0,0,.3-.528v-1.4a.1.1,0,0,1,.079.07l.02-.011a.408.408,0,0,1,.172-.246c.08-.047.148-.024.172.047l.02-.011a.405.405,0,0,1,.172-.246c.08-.047.148-.024.172.047l.02-.011a.411.411,0,0,1,.171-.246c.08-.046.148-.024.172.048l.01-.006S457.562,66.672,456.459,67.26Z" transform="translate(-455.106 -67.025)" fill="#7f6b59"/>
              </g>
              <g id="Group_24" data-name="Group 24" transform="translate(0.625 1.48)">
                <path id="Path_129" data-name="Path 129" d="M456.086,67.614c.052,0,.116-.066.158-.193a1,1,0,0,0,.018-.338,1.611,1.611,0,0,0-.206.338C456.014,67.547,456.034,67.614,456.086,67.614Z" transform="translate(-456.034 -67.082)" fill="#7f6b59"/>
              </g>
              <g id="Group_25" data-name="Group 25" transform="translate(1.037 1.021)">
                <path id="Path_130" data-name="Path 130" d="M456.7,66.935c.052,0,.116-.066.158-.193a1,1,0,0,0,.018-.339,1.606,1.606,0,0,0-.206.338C456.624,66.867,456.645,66.934,456.7,66.935Z" transform="translate(-456.644 -66.402)" fill="#7f6b59"/>
              </g>
              <g id="Group_26" data-name="Group 26" transform="translate(2.066 0.461)">
                <path id="Path_131" data-name="Path 131" d="M458.194,65.909c-.042.127-.022.194.03.194s.116-.066.158-.193a1.019,1.019,0,0,0,.018-.339A1.628,1.628,0,0,0,458.194,65.909Z" transform="translate(-458.171 -65.571)" fill="#7f6b59"/>
              </g>
              <g id="Group_27" data-name="Group 27" transform="translate(2.131 0.953)">
                <path id="Path_132" data-name="Path 132" d="M458.29,66.638c-.042.127-.022.194.03.194s.116-.066.158-.193a1,1,0,0,0,.018-.338A1.638,1.638,0,0,0,458.29,66.638Z" transform="translate(-458.267 -66.3)" fill="#7f6b59"/>
              </g>
              <g id="Group_28" data-name="Group 28" transform="translate(1.495 0.483)">
                <path id="Path_133" data-name="Path 133" d="M457.377,66.135c.052,0,.116-.066.159-.193a1.015,1.015,0,0,0,.018-.338,1.631,1.631,0,0,0-.206.338C457.305,66.068,457.325,66.135,457.377,66.135Z" transform="translate(-457.324 -65.603)" fill="#7f6b59"/>
              </g>
              <g id="Group_29" data-name="Group 29" transform="translate(1.613 0.909)">
                <path id="Path_134" data-name="Path 134" d="M457.522,66.574c-.042.127-.022.194.03.194s.116-.066.158-.193a1.017,1.017,0,0,0,.018-.338A1.631,1.631,0,0,0,457.522,66.574Z" transform="translate(-457.499 -66.236)" fill="#7f6b59"/>
              </g>
              <g id="Group_30" data-name="Group 30" transform="translate(1.949)">
                <path id="Path_135" data-name="Path 135" d="M458.049,65.42c.052,0,.116-.066.158-.193a1,1,0,0,0,.018-.339,1.607,1.607,0,0,0-.206.338C457.977,65.352,458,65.419,458.049,65.42Z" transform="translate(-457.997 -64.887)" fill="#7f6b59"/>
              </g>
            </g>
            <g id="Group_32" data-name="Group 32">
              <path id="Path_136" data-name="Path 136" d="M458.006,68.15l-4.047,2.337c-.037.022-.067,0-.067-.041V65.618a.151.151,0,0,1,.067-.119l4.047-2.337c.037-.022.067,0,.067.041v4.827A.152.152,0,0,1,458.006,68.15Zm-3.981,2.138,3.914-2.26V63.362l-3.914,2.26Z" transform="translate(-453.891 -63.154)" fill="#7f6b59"/>
            </g>
          </g>
          <g id="Group_34" data-name="Group 34" transform="translate(0 2.82)">
            <path id="Path_137" data-name="Path 137" d="M450.734,67.347l-4.047,2.337a.15.15,0,0,0-.068.118v4.827c0,.044.03.063.068.041l4.047-2.336a.152.152,0,0,0,.067-.119V67.388C450.8,67.343,450.771,67.325,450.734,67.347Zm-.067,4.866-3.914,2.26V69.8l3.914-2.26Z" transform="translate(-446.619 -67.338)" fill="#7f6b59"/>
            <path id="Path_138" data-name="Path 138" d="M449.077,71.671v1.406l-.525.521.525-.3.2-.115.541-.313-.541.094v-1.4a2.237,2.237,0,0,0,.692-.772,2.282,2.282,0,0,0,.315-1.087l-1.38.8-.123.289.229-.023-.392.791.067-.485-.134-.032.078-.383-.527.3C448.1,71.626,448.531,71.926,449.077,71.671Z" transform="translate(-447.103 -68.107)" fill="#7f6b59"/>
          </g>
          <g id="Group_42" data-name="Group 42" transform="translate(0 8.692)">
            <g id="Group_40" data-name="Group 40" transform="translate(0.729 1.791)">
              <g id="Group_35" data-name="Group 35" transform="translate(0.663 0.058)">
                <path id="Path_139" data-name="Path 139" d="M449.383,78.791l-.7.885.7.078.7-.885Z" transform="translate(-448.684 -78.791)" fill="#7f6b59"/>
              </g>
              <g id="Group_36" data-name="Group 36" transform="translate(0.646 0.986)">
                <path id="Path_140" data-name="Path 140" d="M448.659,81l.7.078v-.834l-.7-.078Z" transform="translate(-448.659 -80.167)" fill="#7f6b59"/>
              </g>
              <g id="Group_37" data-name="Group 37" transform="translate(1.384 0.157)">
                <path id="Path_141" data-name="Path 141" d="M450.452,78.937l-.7.885v.834l.7-.885Z" transform="translate(-449.753 -78.937)" fill="#7f6b59"/>
              </g>
              <g id="Group_38" data-name="Group 38" transform="translate(0 1.384)">
                <path id="Path_142" data-name="Path 142" d="M448.263,81.509c-.033-.025-.089,0-.127.063a.2.2,0,0,0-.04.107.109.109,0,0,0,.036.1l.332.231c.02.014.023.053,0,.09a.114.114,0,0,1-.042.047.037.037,0,0,1-.04,0l-.328-.227a.087.087,0,0,1-.03-.074v-.328c0-.048,0-.094,0-.15v-.492c0-.109-.073-.154-.164-.1a.369.369,0,0,0-.164.291v.908a.545.545,0,0,0,.124.381l.361.38a.316.316,0,0,1,.071.22v.581l.52-.3v-1a.594.594,0,0,0-.195-.492Z" transform="translate(-447.7 -80.757)" fill="#7f6b59"/>
              </g>
              <g id="Group_39" data-name="Group 39" transform="translate(1.649)">
                <path id="Path_143" data-name="Path 143" d="M451.058,78.726a.368.368,0,0,0-.164.29v.97a.235.235,0,0,1-.03.109l-.328.605a.115.115,0,0,1-.04.045.037.037,0,0,1-.042,0c-.02-.015-.016-.057,0-.094l.333-.615a.268.268,0,0,0,.036-.144c0-.036-.012-.052-.04-.061s-.095.021-.127.084l-.318.605a1.591,1.591,0,0,0-.195.717v1l.52-.3v-.582a.752.752,0,0,1,.071-.3l.361-.8a1.307,1.307,0,0,0,.124-.524v-.908C451.223,78.719,451.149,78.674,451.058,78.726Z" transform="translate(-450.146 -78.704)" fill="#7f6b59"/>
              </g>
            </g>
            <g id="Group_41" data-name="Group 41">
              <path id="Path_144" data-name="Path 144" d="M450.734,81.044l-4.047,2.336c-.037.022-.068,0-.068-.041V78.512a.149.149,0,0,1,.068-.118l4.047-2.337c.037-.022.067,0,.067.041v4.827A.152.152,0,0,1,450.734,81.044Zm-3.981,2.138,3.914-2.26V76.255l-3.914,2.26Z" transform="translate(-446.619 -76.048)" fill="#7f6b59"/>
            </g>
          </g>
          <g id="Group_45" data-name="Group 45" transform="translate(4.902 5.997)">
            <g id="Group_43" data-name="Group 43" transform="translate(0.771 1.616)">
              <path id="Path_145" data-name="Path 145" d="M457.244,76.964V75.436l.306-.177-.569-.812-.569,1.469.306-.177v1.528l-.746.431V76.17l.306-.177-.569-.812-.569,1.469.306-.177V78l-.411.237v.718l2.639-1.524v-.718Z" transform="translate(-455.035 -74.447)" fill="#7f6b59"/>
            </g>
            <g id="Group_44" data-name="Group 44">
              <path id="Path_146" data-name="Path 146" d="M458.006,77.047l-4.047,2.336c-.037.022-.067,0-.067-.041V74.515a.15.15,0,0,1,.067-.119l4.047-2.337c.037-.022.067,0,.067.041v4.827A.152.152,0,0,1,458.006,77.047Zm-3.981,2.138,3.914-2.26V72.258l-3.914,2.26Z" transform="translate(-453.891 -72.051)" fill="#7f6b59"/>
            </g>
          </g>
        </g>
      </g>
    </g>
    <g id="Group_94" data-name="Group 94" transform="translate(294.657 257.32)">
      <g id="Group_19" data-name="Group 19" transform="translate(0 0)">
        <g id="Group_13" data-name="Group 13" transform="translate(65.288 30.391)">
          <path id="Path_70" data-name="Path 70" d="M399.484,284.765A7.017,7.017,0,0,1,396,283.733l-29.2-16.779c-3.387-1.947-6.038-6.189-6.038-9.659V217.807c0-2.876,1.857-4.885,4.515-4.885a7.016,7.016,0,0,1,3.48,1.032l29.2,16.779c3.384,1.946,6.037,6.188,6.037,9.659v39.488C404,282.754,402.143,284.765,399.484,284.765Zm-34.2-67.914c-.248,0-.586,0-.586.956V257.3c0,2.086,1.9,5.006,4.068,6.252l29.2,16.777a3.164,3.164,0,0,0,1.521.509c.248,0,.585,0,.585-.955V240.391c0-2.086-1.9-5.008-4.065-6.251l-29.2-16.78A3.173,3.173,0,0,0,365.28,216.851Z" transform="translate(-360.765 -212.922)" fill="#363634"/>
        </g>
        <g id="Group_14" data-name="Group 14" transform="translate(37.322 46.114)">
          <path id="Path_71" data-name="Path 71" d="M380.974,295.173a7.009,7.009,0,0,1-3.482-1.032l-29.2-16.779c-3.387-1.944-6.04-6.188-6.04-9.659V228.215c0-2.876,1.857-4.885,4.515-4.885a7.012,7.012,0,0,1,3.48,1.032l29.2,16.779c3.385,1.944,6.038,6.188,6.038,9.659v39.488C385.488,293.165,383.631,295.173,380.974,295.173Zm-34.207-67.912c-.246,0-.585,0-.585.955V267.7c0,2.086,1.9,5.008,4.065,6.251l29.2,16.779a3.166,3.166,0,0,0,1.524.509c.246,0,.583,0,.583-.955V250.8c0-2.086-1.9-5.008-4.065-6.251l-29.2-16.779A3.18,3.18,0,0,0,346.767,227.261Z" transform="translate(-342.252 -223.33)" fill="#666"/>
        </g>
        <path id="Path_72" data-name="Path 72" d="M422.106,271.1l-29.263-7.559a25.29,25.29,0,0,0-12.973-.252L348.678,271.2c-5.678,1.441-11.843.9-16.366-1.757S325.82,262.4,329.3,259.8l19.664-14.7c2.666-2,1.8-5.221-.45-7.651l-18.342-19.826c-2.937-3.175-2.34-7.062,1.879-9.555a19.843,19.843,0,0,1,16.2-1.124l29.1,10.9a18.984,18.984,0,0,0,12.973.252l31.267-11.49c5.253-1.929,11.843-.9,16.366,1.758s5.78,6.722,3.009,9.648l-19.74,20.848c-2.121,2.24-2.444,5.476.45,7.651l18.51,13.911c3.781,2.843,2.34,7.061-1.879,9.555S427.964,272.614,422.106,271.1Z" transform="translate(-312.451 -186.266)" fill="#7f7f7f" fill-rule="evenodd"/>
        <path id="Path_73" data-name="Path 73" d="M422.033,270.016,392.77,258.783a19.092,19.092,0,0,0-12.973-.252l-31.192,11.588c-5.12,1.9-11.843.9-16.366-1.758s-6-6.852-3.011-9.648l19.665-18.375c2.29-2.141,2.2-5.33-.45-7.65L330.1,216.627c-3.462-3.032-2.34-7.062,1.879-9.555s10.549-3.008,16.2-1.124l29.095,9.706a20.491,20.491,0,0,0,12.973.252l31.267-10.295a20.791,20.791,0,0,1,16.366,1.758c4.523,2.662,6.219,6.872,3.011,9.648L421.149,234.1c-2.456,2.127-2,5.325.45,7.651l18.51,17.587c3.2,3.038,2.34,7.061-1.879,9.553A19.875,19.875,0,0,1,422.033,270.016Z" transform="translate(-312.377 -186.742)" fill="#f1ece6" fill-rule="evenodd"/>
        <path id="Path_74" data-name="Path 74" d="M416.97,261.072,384.328,244.79a7.671,7.671,0,0,0-5.686-.11L345.437,261c-2.032,1-5.191.4-7.172-.77s-2.63-3-1.319-4.228l27.423-21.572c1.165-.917,1.695-.054.535-1.073l-28.318-18.9c-1.8-1.2-1.026-3.1.825-4.188a8.964,8.964,0,0,1,7.1-.492l33.03,16.12a7.852,7.852,0,0,0,5.686.11L417.2,209.742c2.107-1.008,5.191-.4,7.173.77s2.721,3.008,1.319,4.228l-28.926,19.233c-1.269.843,20.042,14.736,28.125,22.418,1.4,1.331,1.026,3.094-.823,4.186A8.71,8.71,0,0,1,416.97,261.072Z" transform="translate(-308.346 -184.414)" fill="#bcb5ad" fill-rule="evenodd"/>
        <g id="Group_15" data-name="Group 15" transform="translate(96.005 0.002)">
          <path id="Path_75" data-name="Path 75" d="M399.082,211.917c2.357,0,4.281-1.195,4.281-2.659s-1.925-2.659-4.281-2.659-4.281,1.195-4.281,2.659S396.724,211.917,399.082,211.917Z" transform="translate(-374.102 -185.762)" fill="#a39a8f" fill-rule="evenodd"/>
          <path id="Path_76" data-name="Path 76" d="M398.815,203.356a3.7,3.7,0,0,0-3.337,1.529h-.143c0,.7.009,5.536-.009,5.863-.066,1.174,1.562,2.168,3.49,2.168s3.49-.971,3.49-2.168v-5.863h-.154A3.7,3.7,0,0,0,398.815,203.356Z" transform="translate(-373.835 -187.418)" fill="#e39400" fill-rule="evenodd"/>
          <path id="Path_77" data-name="Path 77" d="M399.082,202.052c-1.926,0-3.553.789-4.092,1.875h-.177v.579a1.542,1.542,0,0,0-.012.205c0,1.468,1.917,2.659,4.281,2.659s4.28-1.19,4.28-2.659v-.784h-.189C402.635,202.841,401.007,202.052,399.082,202.052Z" transform="translate(-374.102 -188.084)" fill="#666" fill-rule="evenodd"/>
          <path id="Path_78" data-name="Path 78" d="M399.082,206.714c2.357,0,4.281-1.193,4.281-2.659s-1.925-2.659-4.281-2.659-4.281,1.195-4.281,2.659S396.724,206.714,399.082,206.714Z" transform="translate(-374.102 -188.418)" fill="#363634" fill-rule="evenodd"/>
          <path id="Path_79" data-name="Path 79" d="M398.58,205.2c1.533,0,2.784-.776,2.784-1.73s-1.251-1.73-2.784-1.73-2.784.778-2.784,1.73S397.047,205.2,398.58,205.2Z" transform="translate(-373.594 -188.245)" fill="#575756" fill-rule="evenodd"/>
          <path id="Path_80" data-name="Path 80" d="M383.858,193.481c6.972,4.215,14.2,10.26,21.987,14.07l5.243,2.565c15.966,2,18.5,5.154,19.489,10.3.2,1.059-1.767,1.8-2.686,1.267L399.446,205.3c-17.431-2.462-18.742-6.052-18.274-10.553A1.839,1.839,0,0,1,383.858,193.481Z" transform="translate(-381.099 -192.582)" fill="#e39400" fill-rule="evenodd"/>
          <path id="Path_81" data-name="Path 81" d="M383.972,193.055l21.987,14.07,4.982,2.858c15.967,2,18.758,4.861,19.75,10.006.2,1.061-1.767,1.8-2.686,1.269L399.56,204.875c-17.43-2.462-18.742-6.05-18.273-10.552A1.827,1.827,0,0,1,383.972,193.055Z" transform="translate(-381.04 -192.805)" fill="#fc0" fill-rule="evenodd"/>
          <path id="Path_82" data-name="Path 82" d="M399.23,200.715c2.548,0,4.617,1.284,4.617,2.867s-2.068,2.867-4.617,2.867-4.617-1.284-4.617-2.867S396.681,200.715,399.23,200.715Z" transform="translate(-374.198 -188.767)" fill="#666" fill-rule="evenodd"/>
          <path id="Path_83" data-name="Path 83" d="M399.23,198.917c-2.548,0-4.617,3.423-4.617,5.006s2.068,2.867,4.617,2.867,4.617-1.284,4.617-2.867S401.778,198.917,399.23,198.917Z" transform="translate(-374.198 -189.685)" fill-rule="evenodd" fill="url(#linear-gradient)"/>
        </g>
        <g id="Group_16" data-name="Group 16" transform="translate(0 0)">
          <path id="Path_84" data-name="Path 84" d="M335.328,211.917c2.358,0,4.281-1.195,4.281-2.659s-1.923-2.659-4.281-2.659-4.281,1.195-4.281,2.659S332.97,211.917,335.328,211.917Z" transform="translate(-310.652 -185.759)" fill="#a39a8f" fill-rule="evenodd"/>
          <path id="Path_85" data-name="Path 85" d="M335.061,203.356a3.7,3.7,0,0,1,3.335,1.529h.143c0,.7-.008,5.536.011,5.863.066,1.174-1.562,2.168-3.49,2.168s-3.49-.971-3.49-2.168v-5.863h.154A3.7,3.7,0,0,1,335.061,203.356Z" transform="translate(-310.384 -187.416)" fill="#e39400" fill-rule="evenodd"/>
          <path id="Path_86" data-name="Path 86" d="M335.328,202.052c1.925,0,3.553.789,4.092,1.875h.175v.579a1.542,1.542,0,0,1,.014.205c0,1.468-1.917,2.659-4.281,2.659s-4.281-1.19-4.281-2.659v-.784h.189C331.775,202.841,333.4,202.052,335.328,202.052Z" transform="translate(-310.652 -188.081)" fill="#666" fill-rule="evenodd"/>
          <path id="Path_87" data-name="Path 87" d="M335.328,206.714c2.358,0,4.281-1.193,4.281-2.659s-1.923-2.659-4.281-2.659-4.281,1.195-4.281,2.659S332.97,206.714,335.328,206.714Z" transform="translate(-310.652 -188.416)" fill="#363634" fill-rule="evenodd"/>
          <path id="Path_88" data-name="Path 88" d="M334.818,205.2c1.533,0,2.784-.776,2.784-1.73s-1.251-1.73-2.784-1.73-2.784.778-2.784,1.73S333.285,205.2,334.818,205.2Z" transform="translate(-310.148 -188.242)" fill="#575756" fill-rule="evenodd"/>
          <path id="Path_89" data-name="Path 89" d="M46.733.238c-6.97,4.215-14.194,10.26-21.986,14.07L19.5,16.873c-15.966,2-18.5,5.154-19.489,10.3-.205,1.059,1.766,1.8,2.686,1.267L31.146,12.059C48.576,9.6,49.887,6.007,49.419,1.505A1.838,1.838,0,0,0,46.733.238Z" transform="translate(0.152 0.667)" fill="#e39400" fill-rule="evenodd"/>
          <path id="Path_90" data-name="Path 90" d="M46.734.25,24.747,14.32l-4.982,2.858C3.8,19.175,1.007,22.039.015,27.185c-.2,1.061,1.767,1.8,2.686,1.269L31.146,12.069C48.577,9.607,49.888,6.019,49.42,1.517A1.828,1.828,0,0,0,46.734.25Z" transform="translate(0 0)" fill="#fc0" fill-rule="evenodd"/>
          <path id="Path_91" data-name="Path 91" d="M335.407,200.715c-2.549,0-4.617,1.284-4.617,2.867s2.068,2.867,4.617,2.867,4.616-1.284,4.616-2.867S337.956,200.715,335.407,200.715Z" transform="translate(-310.783 -188.764)" fill="#666" fill-rule="evenodd"/>
          <path id="Path_92" data-name="Path 92" d="M335.407,198.917c-2.549,0-4.617,3.423-4.617,5.006s2.068,2.867,4.617,2.867,4.616-1.284,4.616-2.867S337.956,198.917,335.407,198.917Z" transform="translate(-310.783 -189.682)" fill-rule="evenodd" fill="url(#linear-gradient-2)"/>
        </g>
        <path id="Path_93" data-name="Path 93" d="M336.332,257.728a2.17,2.17,0,0,1,.56-.808l27.423-19.366c1.248-.882.964-2.337-.2-3.354l-.063-.047.261-.18c1.224-.838,1.7-.054.535-1.072L336.532,214a2.364,2.364,0,0,1-.866-.947,3.666,3.666,0,0,1,1.691-1.864,8.964,8.964,0,0,1,7.1-.494l33.03,18.326a7.539,7.539,0,0,0,5.685.11l33.979-18.463c1.994-1.085,5.19-.4,7.172.771a4.228,4.228,0,0,1,1.912,2.05,2.138,2.138,0,0,1-.594.8L396.712,233.52c-.272.18.493.959,1.935,2.144l-1.935,1.435c-1.192.884,20.042,12.532,28.125,20.214a2.753,2.753,0,0,1,.731,1.088,3.358,3.358,0,0,1-1.554,1.724,8.71,8.71,0,0,1-7.1.494l-32.642-16.282a7.67,7.67,0,0,0-5.686-.11l-33.205,16.318c-2.032,1-5.191.4-7.172-.77A4.1,4.1,0,0,1,336.332,257.728Z" transform="translate(-308.293 -183.961)" fill="#4c4c4c" fill-rule="evenodd"/>
        <g id="Group_17" data-name="Group 17" transform="translate(96.152 55.455)">
          <path id="Path_94" data-name="Path 94" d="M398.985,248.626c2.358,0,4.281-1.195,4.281-2.659s-1.923-2.659-4.281-2.659-4.28,1.195-4.28,2.659S396.627,248.626,398.985,248.626Z" transform="translate(-374.298 -222.47)" fill="#a39a8f" fill-rule="evenodd"/>
          <path id="Path_95" data-name="Path 95" d="M398.719,240.065a3.7,3.7,0,0,1,3.334,1.529h.145c0,.7-.008,5.535.009,5.861.066,1.175-1.562,2.168-3.488,2.168s-3.491-.97-3.491-2.168v-5.861h.154A3.7,3.7,0,0,1,398.719,240.065Z" transform="translate(-374.031 -224.126)" fill="#e39400" fill-rule="evenodd"/>
          <path id="Path_96" data-name="Path 96" d="M398.987,238.761c1.923,0,3.553.789,4.091,1.875h.177v.579a1.83,1.83,0,0,1,.012.2c0,1.468-1.917,2.659-4.28,2.659s-4.283-1.19-4.283-2.659v-.783h.19C395.432,239.55,397.061,238.761,398.987,238.761Z" transform="translate(-374.299 -224.792)" fill="#666" fill-rule="evenodd"/>
          <path id="Path_97" data-name="Path 97" d="M398.985,243.422c2.358,0,4.281-1.193,4.281-2.657s-1.923-2.659-4.281-2.659-4.28,1.193-4.28,2.659S396.627,243.422,398.985,243.422Z" transform="translate(-374.298 -225.126)" fill="#363634" fill-rule="evenodd"/>
          <path id="Path_98" data-name="Path 98" d="M398.475,241.9c1.533,0,2.784-.777,2.784-1.73s-1.251-1.728-2.784-1.728-2.784.777-2.784,1.728S396.942,241.9,398.475,241.9Z" transform="translate(-373.795 -224.952)" fill="#575756" fill-rule="evenodd"/>
          <path id="Path_99" data-name="Path 99" d="M428.045,230.189c-6.972,4.215-14.2,10.26-21.987,14.072l-5.243,2.565c-15.966,2-18.5,5.153-19.489,10.3-.2,1.06,1.767,1.8,2.686,1.267l28.445-16.383c17.431-2.462,18.743-6.052,18.274-10.552A1.838,1.838,0,0,0,428.045,230.189Z" transform="translate(-381.138 -229.29)" fill="#e39400" fill-rule="evenodd"/>
          <path id="Path_100" data-name="Path 100" d="M427.93,229.764l-21.987,14.072-4.982,2.858c-15.967,2-18.759,4.86-19.75,10.005-.2,1.06,1.767,1.8,2.686,1.269l28.445-16.383c17.43-2.464,18.743-6.052,18.274-10.553A1.829,1.829,0,0,0,427.93,229.764Z" transform="translate(-381.196 -229.514)" fill="#fc0" fill-rule="evenodd"/>
          <path id="Path_101" data-name="Path 101" d="M399.065,237.424c-2.548,0-4.617,1.284-4.617,2.866s2.068,2.867,4.617,2.867,4.616-1.284,4.616-2.867S401.613,237.424,399.065,237.424Z" transform="translate(-374.43 -225.474)" fill="#666" fill-rule="evenodd"/>
          <path id="Path_102" data-name="Path 102" d="M399.065,235.626c-2.548,0-4.617,3.423-4.617,5.006s2.068,2.866,4.617,2.866,4.616-1.284,4.616-2.866S401.613,235.626,399.065,235.626Z" transform="translate(-374.43 -226.392)" fill-rule="evenodd" fill="url(#linear-gradient-3)"/>
        </g>
        <g id="Group_18" data-name="Group 18" transform="translate(0.137 55.455)">
          <path id="Path_103" data-name="Path 103" d="M335.62,248.626c2.358,0,4.281-1.195,4.281-2.659s-1.923-2.659-4.281-2.659-4.281,1.195-4.281,2.659S333.264,248.626,335.62,248.626Z" transform="translate(-310.64 -222.47)" fill="#a39a8f" fill-rule="evenodd"/>
          <path id="Path_104" data-name="Path 104" d="M335.353,240.065a3.7,3.7,0,0,0-3.336,1.529h-.144c0,.7.008,5.535-.011,5.861-.066,1.175,1.562,2.168,3.49,2.168s3.49-.97,3.49-2.168v-5.861h-.154A3.7,3.7,0,0,0,335.353,240.065Z" transform="translate(-310.373 -224.126)" fill="#e39400" fill-rule="evenodd"/>
          <path id="Path_105" data-name="Path 105" d="M335.62,238.761c-1.925,0-3.553.789-4.091,1.875h-.178v.579a1.837,1.837,0,0,0-.012.2c0,1.468,1.917,2.659,4.281,2.659s4.281-1.19,4.281-2.659v-.783h-.19C339.173,239.55,337.545,238.761,335.62,238.761Z" transform="translate(-310.64 -224.792)" fill="#666" fill-rule="evenodd"/>
          <path id="Path_106" data-name="Path 106" d="M335.62,243.422c2.358,0,4.281-1.193,4.281-2.657s-1.923-2.659-4.281-2.659-4.281,1.193-4.281,2.659S333.264,243.422,335.62,243.422Z" transform="translate(-310.64 -225.126)" fill="#363634" fill-rule="evenodd"/>
          <path id="Path_107" data-name="Path 107" d="M335.118,241.9c1.535,0,2.786-.777,2.786-1.73s-1.251-1.728-2.786-1.728-2.784.777-2.784,1.728S333.585,241.9,335.118,241.9Z" transform="translate(-310.132 -224.952)" fill="#575756" fill-rule="evenodd"/>
          <path id="Path_108" data-name="Path 108" d="M320.4,230.189c6.97,4.215,14.194,10.26,21.986,14.072l5.243,2.565c15.966,2,18.5,5.153,19.489,10.3.2,1.06-1.768,1.8-2.686,1.267L335.984,242.01c-17.43-2.462-18.741-6.052-18.274-10.552A1.839,1.839,0,0,1,320.4,230.189Z" transform="translate(-317.637 -229.29)" fill="#e39400" fill-rule="evenodd"/>
          <path id="Path_109" data-name="Path 109" d="M320.512,229.764,342.5,243.835l4.982,2.858c15.966,2,18.758,4.86,19.749,10.005.2,1.06-1.766,1.8-2.684,1.269L336.1,241.584c-17.43-2.464-18.741-6.052-18.273-10.553A1.829,1.829,0,0,1,320.512,229.764Z" transform="translate(-317.578 -229.514)" fill="#fc0" fill-rule="evenodd"/>
          <path id="Path_110" data-name="Path 110" d="M335.768,237.424c2.55,0,4.616,1.284,4.616,2.866s-2.066,2.867-4.616,2.867-4.616-1.284-4.616-2.867S333.219,237.424,335.768,237.424Z" transform="translate(-310.736 -225.474)" fill="#666" fill-rule="evenodd"/>
          <path id="Path_111" data-name="Path 111" d="M335.767,235.626c-2.548,0-4.615,3.423-4.615,5.006s2.066,2.866,4.615,2.866,4.617-1.284,4.617-2.866S338.317,235.626,335.767,235.626Z" transform="translate(-310.736 -226.392)" fill-rule="evenodd" fill="url(#linear-gradient-4)"/>
        </g>
        <path id="Path_112" data-name="Path 112" d="M357.633,215.79a29.015,29.015,0,0,0-10.218,6.573l11.525,7.694c1.16,1.018,1.5,2.651.2,3.354L347.241,239.8v2.758A33.306,33.306,0,0,0,357.174,249l15.505-7.62a7.67,7.67,0,0,1,5.686.11l14.688,7.327a28.262,28.262,0,0,0,9.42-6.3v-2.381c-6.679-4.908-12.343-9.017-11.671-9.463l11.931-7.934a28.72,28.72,0,0,0-10.822-7.05L377.257,222.7a7.848,7.848,0,0,1-5.685-.11Z" transform="translate(-302.383 -181.116)" fill="#e39400" fill-rule="evenodd"/>
        <path id="Path_113" data-name="Path 113" d="M376.351,212.1c-17.646,0-31.954,8.886-31.954,19.844s14.309,19.844,31.954,19.844S408.3,242.9,408.3,231.942,394,212.1,376.351,212.1Z" transform="translate(-303.836 -182.952)" fill="#fc0" fill-rule="evenodd"/>
        <path id="Path_114" data-name="Path 114" d="M372.77,213.92c-11.8,0-21.362,5.941-21.362,13.266s9.567,13.265,21.362,13.265,21.362-5.94,21.362-13.265S384.565,213.92,372.77,213.92Z" transform="translate(-300.255 -182.021)" fill="#e39400" fill-rule="evenodd"/>
        <path id="Path_115" data-name="Path 115" d="M372.753,215.076c-11.324,0-20.587,5.476-21.312,12.392.725,6.917,9.988,12.393,21.312,12.393s20.587-5.476,21.311-12.393C393.34,220.552,384.077,215.076,372.753,215.076Z" transform="translate(-300.238 -181.431)" fill="#363634" fill-rule="evenodd"/>
        <path id="Path_116" data-name="Path 116" d="M371.533,215.564c-9.775,0-17.7,4.923-17.7,10.993s7.926,10.993,17.7,10.993,17.7-4.923,17.7-10.993S381.307,215.564,371.533,215.564Z" transform="translate(-299.018 -181.182)" fill="#e39400" fill-rule="evenodd"/>
        <path id="Path_117" data-name="Path 117" d="M371.533,214.756c-9.775,0-17.7,4.922-17.7,10.993s7.926,10.993,17.7,10.993,17.7-4.923,17.7-10.993S381.307,214.756,371.533,214.756Z" transform="translate(-299.018 -181.594)" fill-rule="evenodd" fill="url(#linear-gradient-5)"/>
      </g>
    </g>
  </g>
</svg>
