<svg xmlns="http://www.w3.org/2000/svg" xmlns:xlink="http://www.w3.org/1999/xlink" width="145.819" height="117.957" viewBox="0 0 145.819 117.957">
  <defs>
    <linearGradient id="linear-gradient" x1="0.241" y1="0.119" x2="0.71" y2="0.998" gradientUnits="objectBoundingBox">
      <stop offset="0" stop-color="#fbc800"/>
      <stop offset="1" stop-color="#fff"/>
    </linearGradient>
    <linearGradient id="linear-gradient-2" x1="0.241" y1="0.119" x2="0.71" y2="0.998" xlink:href="#linear-gradient"/>
    <linearGradient id="linear-gradient-3" x1="0.241" y1="0.119" x2="0.709" y2="0.998" xlink:href="#linear-gradient"/>
    <linearGradient id="linear-gradient-4" x1="0.241" y1="0.119" x2="0.71" y2="0.999" xlink:href="#linear-gradient"/>
    <linearGradient id="linear-gradient-5" x1="0.249" y1="-0.146" x2="0.751" y2="1.146" xlink:href="#linear-gradient"/>
  </defs>
  <g id="Group_114" data-name="Group 114" transform="translate(-291.347 -291.309)">
    <g id="Group_97" data-name="Group 97" transform="translate(291.347 291.309)">
      <g id="Group_19" data-name="Group 19" transform="translate(0 0)">
        <g id="Group_13" data-name="Group 13" transform="translate(65.288 30.391)">
          <path id="Path_70" data-name="Path 70" d="M399.484,284.765A7.017,7.017,0,0,1,396,283.733l-29.2-16.779c-3.387-1.947-6.038-6.189-6.038-9.659V217.807c0-2.876,1.857-4.885,4.515-4.885a7.016,7.016,0,0,1,3.48,1.032l29.2,16.779c3.384,1.946,6.037,6.188,6.037,9.659v39.488C404,282.754,402.143,284.765,399.484,284.765Zm-34.2-67.914c-.248,0-.586,0-.586.956V257.3c0,2.086,1.9,5.006,4.068,6.252l29.2,16.777a3.164,3.164,0,0,0,1.521.509c.248,0,.585,0,.585-.955V240.391c0-2.086-1.9-5.008-4.065-6.251l-29.2-16.78A3.173,3.173,0,0,0,365.28,216.851Z" transform="translate(-360.765 -212.922)" fill="#363634"/>
        </g>
        <g id="Group_14" data-name="Group 14" transform="translate(37.322 46.114)">
          <path id="Path_71" data-name="Path 71" d="M380.974,295.173a7.009,7.009,0,0,1-3.482-1.032l-29.2-16.779c-3.387-1.944-6.04-6.188-6.04-9.659V228.215c0-2.876,1.857-4.885,4.515-4.885a7.012,7.012,0,0,1,3.48,1.032l29.2,16.779c3.385,1.944,6.038,6.188,6.038,9.659v39.488C385.488,293.165,383.631,295.173,380.974,295.173Zm-34.207-67.912c-.246,0-.585,0-.585.955V267.7c0,2.086,1.9,5.008,4.065,6.251l29.2,16.779a3.166,3.166,0,0,0,1.524.509c.246,0,.583,0,.583-.955V250.8c0-2.086-1.9-5.008-4.065-6.251l-29.2-16.779A3.18,3.18,0,0,0,346.767,227.261Z" transform="translate(-342.252 -223.33)" fill="#666"/>
        </g>
        <path id="Path_72" data-name="Path 72" d="M422.106,271.1l-29.263-7.559a25.29,25.29,0,0,0-12.973-.252L348.678,271.2c-5.678,1.441-11.843.9-16.366-1.757S325.82,262.4,329.3,259.8l19.664-14.7c2.666-2,1.8-5.221-.45-7.651l-18.342-19.826c-2.937-3.175-2.34-7.062,1.879-9.555a19.843,19.843,0,0,1,16.2-1.124l29.1,10.9a18.984,18.984,0,0,0,12.973.252l31.267-11.49c5.253-1.929,11.843-.9,16.366,1.758s5.78,6.722,3.009,9.648l-19.74,20.848c-2.121,2.24-2.444,5.476.45,7.651l18.51,13.911c3.781,2.843,2.34,7.061-1.879,9.555S427.964,272.614,422.106,271.1Z" transform="translate(-312.451 -186.266)" fill="#7f7f7f" fill-rule="evenodd"/>
        <path id="Path_73" data-name="Path 73" d="M422.033,270.016,392.77,258.783a19.092,19.092,0,0,0-12.973-.252l-31.192,11.588c-5.12,1.9-11.843.9-16.366-1.758s-6-6.852-3.011-9.648l19.665-18.375c2.29-2.141,2.2-5.33-.45-7.65L330.1,216.627c-3.462-3.032-2.34-7.062,1.879-9.555s10.549-3.008,16.2-1.124l29.095,9.706a20.491,20.491,0,0,0,12.973.252l31.267-10.295a20.791,20.791,0,0,1,16.366,1.758c4.523,2.662,6.219,6.872,3.011,9.648L421.149,234.1c-2.456,2.127-2,5.325.45,7.651l18.51,17.587c3.2,3.038,2.34,7.061-1.879,9.553A19.875,19.875,0,0,1,422.033,270.016Z" transform="translate(-312.377 -186.742)" fill="#f1ece6" fill-rule="evenodd"/>
        <path id="Path_74" data-name="Path 74" d="M416.97,261.072,384.328,244.79a7.671,7.671,0,0,0-5.686-.11L345.437,261c-2.032,1-5.191.4-7.172-.77s-2.63-3-1.319-4.228l27.423-21.572c1.165-.917,1.695-.054.535-1.073l-28.318-18.9c-1.8-1.2-1.026-3.1.825-4.188a8.964,8.964,0,0,1,7.1-.492l33.03,16.12a7.852,7.852,0,0,0,5.686.11L417.2,209.742c2.107-1.008,5.191-.4,7.173.77s2.721,3.008,1.319,4.228l-28.926,19.233c-1.269.843,20.042,14.736,28.125,22.418,1.4,1.331,1.026,3.094-.823,4.186A8.71,8.71,0,0,1,416.97,261.072Z" transform="translate(-308.346 -184.414)" fill="#bcb5ad" fill-rule="evenodd"/>
        <g id="Group_15" data-name="Group 15" transform="translate(96.005 0.002)">
          <path id="Path_75" data-name="Path 75" d="M399.082,211.917c2.357,0,4.281-1.195,4.281-2.659s-1.925-2.659-4.281-2.659-4.281,1.195-4.281,2.659S396.724,211.917,399.082,211.917Z" transform="translate(-374.102 -185.762)" fill="#a39a8f" fill-rule="evenodd"/>
          <path id="Path_76" data-name="Path 76" d="M398.815,203.356a3.7,3.7,0,0,0-3.337,1.529h-.143c0,.7.009,5.536-.009,5.863-.066,1.174,1.562,2.168,3.49,2.168s3.49-.971,3.49-2.168v-5.863h-.154A3.7,3.7,0,0,0,398.815,203.356Z" transform="translate(-373.835 -187.418)" fill="#e39400" fill-rule="evenodd"/>
          <path id="Path_77" data-name="Path 77" d="M399.082,202.052c-1.926,0-3.553.789-4.092,1.875h-.177v.579a1.542,1.542,0,0,0-.012.205c0,1.468,1.917,2.659,4.281,2.659s4.28-1.19,4.28-2.659v-.784h-.189C402.635,202.841,401.007,202.052,399.082,202.052Z" transform="translate(-374.102 -188.084)" fill="#666" fill-rule="evenodd"/>
          <path id="Path_78" data-name="Path 78" d="M399.082,206.714c2.357,0,4.281-1.193,4.281-2.659s-1.925-2.659-4.281-2.659-4.281,1.195-4.281,2.659S396.724,206.714,399.082,206.714Z" transform="translate(-374.102 -188.418)" fill="#363634" fill-rule="evenodd"/>
          <path id="Path_79" data-name="Path 79" d="M398.58,205.2c1.533,0,2.784-.776,2.784-1.73s-1.251-1.73-2.784-1.73-2.784.778-2.784,1.73S397.047,205.2,398.58,205.2Z" transform="translate(-373.594 -188.245)" fill="#575756" fill-rule="evenodd"/>
          <path id="Path_80" data-name="Path 80" d="M383.858,193.481c6.972,4.215,14.2,10.26,21.987,14.07l5.243,2.565c15.966,2,18.5,5.154,19.489,10.3.2,1.059-1.767,1.8-2.686,1.267L399.446,205.3c-17.431-2.462-18.742-6.052-18.274-10.553A1.839,1.839,0,0,1,383.858,193.481Z" transform="translate(-381.099 -192.582)" fill="#e39400" fill-rule="evenodd"/>
          <path id="Path_81" data-name="Path 81" d="M383.972,193.055l21.987,14.07,4.982,2.858c15.967,2,18.758,4.861,19.75,10.006.2,1.061-1.767,1.8-2.686,1.269L399.56,204.875c-17.43-2.462-18.742-6.05-18.273-10.552A1.827,1.827,0,0,1,383.972,193.055Z" transform="translate(-381.04 -192.805)" fill="#fc0" fill-rule="evenodd"/>
          <path id="Path_82" data-name="Path 82" d="M399.23,200.715c2.548,0,4.617,1.284,4.617,2.867s-2.068,2.867-4.617,2.867-4.617-1.284-4.617-2.867S396.681,200.715,399.23,200.715Z" transform="translate(-374.198 -188.767)" fill="#666" fill-rule="evenodd"/>
          <path id="Path_83" data-name="Path 83" d="M399.23,198.917c-2.548,0-4.617,3.423-4.617,5.006s2.068,2.867,4.617,2.867,4.617-1.284,4.617-2.867S401.778,198.917,399.23,198.917Z" transform="translate(-374.198 -189.685)" fill-rule="evenodd" fill="url(#linear-gradient)"/>
        </g>
        <g id="Group_16" data-name="Group 16" transform="translate(0 0)">
          <path id="Path_84" data-name="Path 84" d="M335.328,211.917c2.358,0,4.281-1.195,4.281-2.659s-1.923-2.659-4.281-2.659-4.281,1.195-4.281,2.659S332.97,211.917,335.328,211.917Z" transform="translate(-310.652 -185.759)" fill="#a39a8f" fill-rule="evenodd"/>
          <path id="Path_85" data-name="Path 85" d="M335.061,203.356a3.7,3.7,0,0,1,3.335,1.529h.143c0,.7-.008,5.536.011,5.863.066,1.174-1.562,2.168-3.49,2.168s-3.49-.971-3.49-2.168v-5.863h.154A3.7,3.7,0,0,1,335.061,203.356Z" transform="translate(-310.384 -187.416)" fill="#e39400" fill-rule="evenodd"/>
          <path id="Path_86" data-name="Path 86" d="M335.328,202.052c1.925,0,3.553.789,4.092,1.875h.175v.579a1.542,1.542,0,0,1,.014.205c0,1.468-1.917,2.659-4.281,2.659s-4.281-1.19-4.281-2.659v-.784h.189C331.775,202.841,333.4,202.052,335.328,202.052Z" transform="translate(-310.652 -188.081)" fill="#666" fill-rule="evenodd"/>
          <path id="Path_87" data-name="Path 87" d="M335.328,206.714c2.358,0,4.281-1.193,4.281-2.659s-1.923-2.659-4.281-2.659-4.281,1.195-4.281,2.659S332.97,206.714,335.328,206.714Z" transform="translate(-310.652 -188.416)" fill="#363634" fill-rule="evenodd"/>
          <path id="Path_88" data-name="Path 88" d="M334.818,205.2c1.533,0,2.784-.776,2.784-1.73s-1.251-1.73-2.784-1.73-2.784.778-2.784,1.73S333.285,205.2,334.818,205.2Z" transform="translate(-310.148 -188.242)" fill="#575756" fill-rule="evenodd"/>
          <path id="Path_89" data-name="Path 89" d="M46.733.238c-6.97,4.215-14.194,10.26-21.986,14.07L19.5,16.873c-15.966,2-18.5,5.154-19.489,10.3-.205,1.059,1.766,1.8,2.686,1.267L31.146,12.059C48.576,9.6,49.887,6.007,49.419,1.505A1.838,1.838,0,0,0,46.733.238Z" transform="translate(0.152 0.667)" fill="#e39400" fill-rule="evenodd"/>
          <path id="Path_90" data-name="Path 90" d="M46.734.25,24.747,14.32l-4.982,2.858C3.8,19.175,1.007,22.039.015,27.185c-.2,1.061,1.767,1.8,2.686,1.269L31.146,12.069C48.577,9.607,49.888,6.019,49.42,1.517A1.828,1.828,0,0,0,46.734.25Z" transform="translate(0 0)" fill="#fc0" fill-rule="evenodd"/>
          <path id="Path_91" data-name="Path 91" d="M335.407,200.715c-2.549,0-4.617,1.284-4.617,2.867s2.068,2.867,4.617,2.867,4.616-1.284,4.616-2.867S337.956,200.715,335.407,200.715Z" transform="translate(-310.783 -188.764)" fill="#666" fill-rule="evenodd"/>
          <path id="Path_92" data-name="Path 92" d="M335.407,198.917c-2.549,0-4.617,3.423-4.617,5.006s2.068,2.867,4.617,2.867,4.616-1.284,4.616-2.867S337.956,198.917,335.407,198.917Z" transform="translate(-310.783 -189.682)" fill-rule="evenodd" fill="url(#linear-gradient-2)"/>
        </g>
        <path id="Path_93" data-name="Path 93" d="M336.332,257.728a2.17,2.17,0,0,1,.56-.808l27.423-19.366c1.248-.882.964-2.337-.2-3.354l-.063-.047.261-.18c1.224-.838,1.7-.054.535-1.072L336.532,214a2.364,2.364,0,0,1-.866-.947,3.666,3.666,0,0,1,1.691-1.864,8.964,8.964,0,0,1,7.1-.494l33.03,18.326a7.539,7.539,0,0,0,5.685.11l33.979-18.463c1.994-1.085,5.19-.4,7.172.771a4.228,4.228,0,0,1,1.912,2.05,2.138,2.138,0,0,1-.594.8L396.712,233.52c-.272.18.493.959,1.935,2.144l-1.935,1.435c-1.192.884,20.042,12.532,28.125,20.214a2.753,2.753,0,0,1,.731,1.088,3.358,3.358,0,0,1-1.554,1.724,8.71,8.71,0,0,1-7.1.494l-32.642-16.282a7.67,7.67,0,0,0-5.686-.11l-33.205,16.318c-2.032,1-5.191.4-7.172-.77A4.1,4.1,0,0,1,336.332,257.728Z" transform="translate(-308.293 -183.961)" fill="#4c4c4c" fill-rule="evenodd"/>
        <g id="Group_17" data-name="Group 17" transform="translate(96.152 55.455)">
          <path id="Path_94" data-name="Path 94" d="M398.985,248.626c2.358,0,4.281-1.195,4.281-2.659s-1.923-2.659-4.281-2.659-4.28,1.195-4.28,2.659S396.627,248.626,398.985,248.626Z" transform="translate(-374.298 -222.47)" fill="#a39a8f" fill-rule="evenodd"/>
          <path id="Path_95" data-name="Path 95" d="M398.719,240.065a3.7,3.7,0,0,1,3.334,1.529h.145c0,.7-.008,5.535.009,5.861.066,1.175-1.562,2.168-3.488,2.168s-3.491-.97-3.491-2.168v-5.861h.154A3.7,3.7,0,0,1,398.719,240.065Z" transform="translate(-374.031 -224.126)" fill="#e39400" fill-rule="evenodd"/>
          <path id="Path_96" data-name="Path 96" d="M398.987,238.761c1.923,0,3.553.789,4.091,1.875h.177v.579a1.83,1.83,0,0,1,.012.2c0,1.468-1.917,2.659-4.28,2.659s-4.283-1.19-4.283-2.659v-.783h.19C395.432,239.55,397.061,238.761,398.987,238.761Z" transform="translate(-374.299 -224.792)" fill="#666" fill-rule="evenodd"/>
          <path id="Path_97" data-name="Path 97" d="M398.985,243.422c2.358,0,4.281-1.193,4.281-2.657s-1.923-2.659-4.281-2.659-4.28,1.193-4.28,2.659S396.627,243.422,398.985,243.422Z" transform="translate(-374.298 -225.126)" fill="#363634" fill-rule="evenodd"/>
          <path id="Path_98" data-name="Path 98" d="M398.475,241.9c1.533,0,2.784-.777,2.784-1.73s-1.251-1.728-2.784-1.728-2.784.777-2.784,1.728S396.942,241.9,398.475,241.9Z" transform="translate(-373.795 -224.952)" fill="#575756" fill-rule="evenodd"/>
          <path id="Path_99" data-name="Path 99" d="M428.045,230.189c-6.972,4.215-14.2,10.26-21.987,14.072l-5.243,2.565c-15.966,2-18.5,5.153-19.489,10.3-.2,1.06,1.767,1.8,2.686,1.267l28.445-16.383c17.431-2.462,18.743-6.052,18.274-10.552A1.838,1.838,0,0,0,428.045,230.189Z" transform="translate(-381.138 -229.29)" fill="#e39400" fill-rule="evenodd"/>
          <path id="Path_100" data-name="Path 100" d="M427.93,229.764l-21.987,14.072-4.982,2.858c-15.967,2-18.759,4.86-19.75,10.005-.2,1.06,1.767,1.8,2.686,1.269l28.445-16.383c17.43-2.464,18.743-6.052,18.274-10.553A1.829,1.829,0,0,0,427.93,229.764Z" transform="translate(-381.196 -229.514)" fill="#fc0" fill-rule="evenodd"/>
          <path id="Path_101" data-name="Path 101" d="M399.065,237.424c-2.548,0-4.617,1.284-4.617,2.866s2.068,2.867,4.617,2.867,4.616-1.284,4.616-2.867S401.613,237.424,399.065,237.424Z" transform="translate(-374.43 -225.474)" fill="#666" fill-rule="evenodd"/>
          <path id="Path_102" data-name="Path 102" d="M399.065,235.626c-2.548,0-4.617,3.423-4.617,5.006s2.068,2.866,4.617,2.866,4.616-1.284,4.616-2.866S401.613,235.626,399.065,235.626Z" transform="translate(-374.43 -226.392)" fill-rule="evenodd" fill="url(#linear-gradient-3)"/>
        </g>
        <g id="Group_18" data-name="Group 18" transform="translate(0.137 55.455)">
          <path id="Path_103" data-name="Path 103" d="M335.62,248.626c2.358,0,4.281-1.195,4.281-2.659s-1.923-2.659-4.281-2.659-4.281,1.195-4.281,2.659S333.264,248.626,335.62,248.626Z" transform="translate(-310.64 -222.47)" fill="#a39a8f" fill-rule="evenodd"/>
          <path id="Path_104" data-name="Path 104" d="M335.353,240.065a3.7,3.7,0,0,0-3.336,1.529h-.144c0,.7.008,5.535-.011,5.861-.066,1.175,1.562,2.168,3.49,2.168s3.49-.97,3.49-2.168v-5.861h-.154A3.7,3.7,0,0,0,335.353,240.065Z" transform="translate(-310.373 -224.126)" fill="#e39400" fill-rule="evenodd"/>
          <path id="Path_105" data-name="Path 105" d="M335.62,238.761c-1.925,0-3.553.789-4.091,1.875h-.178v.579a1.837,1.837,0,0,0-.012.2c0,1.468,1.917,2.659,4.281,2.659s4.281-1.19,4.281-2.659v-.783h-.19C339.173,239.55,337.545,238.761,335.62,238.761Z" transform="translate(-310.64 -224.792)" fill="#666" fill-rule="evenodd"/>
          <path id="Path_106" data-name="Path 106" d="M335.62,243.422c2.358,0,4.281-1.193,4.281-2.657s-1.923-2.659-4.281-2.659-4.281,1.193-4.281,2.659S333.264,243.422,335.62,243.422Z" transform="translate(-310.64 -225.126)" fill="#363634" fill-rule="evenodd"/>
          <path id="Path_107" data-name="Path 107" d="M335.118,241.9c1.535,0,2.786-.777,2.786-1.73s-1.251-1.728-2.786-1.728-2.784.777-2.784,1.728S333.585,241.9,335.118,241.9Z" transform="translate(-310.132 -224.952)" fill="#575756" fill-rule="evenodd"/>
          <path id="Path_108" data-name="Path 108" d="M320.4,230.189c6.97,4.215,14.194,10.26,21.986,14.072l5.243,2.565c15.966,2,18.5,5.153,19.489,10.3.2,1.06-1.768,1.8-2.686,1.267L335.984,242.01c-17.43-2.462-18.741-6.052-18.274-10.552A1.839,1.839,0,0,1,320.4,230.189Z" transform="translate(-317.637 -229.29)" fill="#e39400" fill-rule="evenodd"/>
          <path id="Path_109" data-name="Path 109" d="M320.512,229.764,342.5,243.835l4.982,2.858c15.966,2,18.758,4.86,19.749,10.005.2,1.06-1.766,1.8-2.684,1.269L336.1,241.584c-17.43-2.464-18.741-6.052-18.273-10.553A1.829,1.829,0,0,1,320.512,229.764Z" transform="translate(-317.578 -229.514)" fill="#fc0" fill-rule="evenodd"/>
          <path id="Path_110" data-name="Path 110" d="M335.768,237.424c2.55,0,4.616,1.284,4.616,2.866s-2.066,2.867-4.616,2.867-4.616-1.284-4.616-2.867S333.219,237.424,335.768,237.424Z" transform="translate(-310.736 -225.474)" fill="#666" fill-rule="evenodd"/>
          <path id="Path_111" data-name="Path 111" d="M335.767,235.626c-2.548,0-4.615,3.423-4.615,5.006s2.066,2.866,4.615,2.866,4.617-1.284,4.617-2.866S338.317,235.626,335.767,235.626Z" transform="translate(-310.736 -226.392)" fill-rule="evenodd" fill="url(#linear-gradient-4)"/>
        </g>
        <path id="Path_112" data-name="Path 112" d="M357.633,215.79a29.015,29.015,0,0,0-10.218,6.573l11.525,7.694c1.16,1.018,1.5,2.651.2,3.354L347.241,239.8v2.758A33.306,33.306,0,0,0,357.174,249l15.505-7.62a7.67,7.67,0,0,1,5.686.11l14.688,7.327a28.262,28.262,0,0,0,9.42-6.3v-2.381c-6.679-4.908-12.343-9.017-11.671-9.463l11.931-7.934a28.72,28.72,0,0,0-10.822-7.05L377.257,222.7a7.848,7.848,0,0,1-5.685-.11Z" transform="translate(-302.383 -181.116)" fill="#e39400" fill-rule="evenodd"/>
        <path id="Path_113" data-name="Path 113" d="M376.351,212.1c-17.646,0-31.954,8.886-31.954,19.844s14.309,19.844,31.954,19.844S408.3,242.9,408.3,231.942,394,212.1,376.351,212.1Z" transform="translate(-303.836 -182.952)" fill="#fc0" fill-rule="evenodd"/>
        <path id="Path_114" data-name="Path 114" d="M372.77,213.92c-11.8,0-21.362,5.941-21.362,13.266s9.567,13.265,21.362,13.265,21.362-5.94,21.362-13.265S384.565,213.92,372.77,213.92Z" transform="translate(-300.255 -182.021)" fill="#e39400" fill-rule="evenodd"/>
        <path id="Path_115" data-name="Path 115" d="M372.753,215.076c-11.324,0-20.587,5.476-21.312,12.392.725,6.917,9.988,12.393,21.312,12.393s20.587-5.476,21.311-12.393C393.34,220.552,384.077,215.076,372.753,215.076Z" transform="translate(-300.238 -181.431)" fill="#363634" fill-rule="evenodd"/>
        <path id="Path_116" data-name="Path 116" d="M371.533,215.564c-9.775,0-17.7,4.923-17.7,10.993s7.926,10.993,17.7,10.993,17.7-4.923,17.7-10.993S381.307,215.564,371.533,215.564Z" transform="translate(-299.018 -181.182)" fill="#e39400" fill-rule="evenodd"/>
        <path id="Path_117" data-name="Path 117" d="M371.533,214.756c-9.775,0-17.7,4.922-17.7,10.993s7.926,10.993,17.7,10.993,17.7-4.923,17.7-10.993S381.307,214.756,371.533,214.756Z" transform="translate(-299.018 -181.594)" fill-rule="evenodd" fill="url(#linear-gradient-5)"/>
      </g>
    </g>
  </g>
</svg>
