<svg xmlns="http://www.w3.org/2000/svg" width="57.346" height="57.346" viewBox="0 0 57.346 57.346">
  <g id="Group_168" data-name="Group 168" transform="translate(-399.654 -994.49)">
    <g id="Group_95" data-name="Group 95" transform="translate(399.654 994.49)">
      <g id="heart_icon_group" data-name="heart icon group" transform="translate(0 0)">
        <g id="favourite_icon" data-name="favourite icon" transform="translate(0 0)">
          <rect id="Rectangle_1" data-name="Rectangle 1" width="57.346" height="57.346" rx="24" fill="#ff524f"/>
        </g>
      </g>
      <path id="Facebook-6" d="M730.462-419.264H706.31a1.5,1.5,0,0,0-1.5,1.5h0v24.151a1.5,1.5,0,0,0,1.5,1.5h13v-10.513h-3.537v-4.1h3.537v-3.017c0-3.508,2.145-5.419,5.271-5.419a30.4,30.4,0,0,1,3.166.16v3.668h-2.173c-1.711,0-2.031.81-2.031,2v2.613H727.6l-.531,4.1h-3.531v10.513h6.919a1.5,1.5,0,0,0,1.5-1.5h0v-24.151a1.5,1.5,0,0,0-1.5-1.5Z" transform="translate(-689.932 434.142)" fill="#fff"/>
    </g>
  </g>
</svg>
