<svg id="Group_11" data-name="Group 11" xmlns="http://www.w3.org/2000/svg" width="43.196" height="35.328" viewBox="0 0 43.196 35.328">
  <g id="Group_38" data-name="Group 38">
    <path id="Path_80" data-name="Path 80" d="M754.59,118.082a.8.8,0,0,1-.074-.371q0-.111-.223-.223a.915.915,0,0,1-.223-.148.434.434,0,0,0-.3-.074h-8.906A4.5,4.5,0,0,1,741.75,116a4.2,4.2,0,0,1-1.262-3.117V93.367a4.5,4.5,0,0,1,1.262-3.117,4.2,4.2,0,0,1,3.117-1.262H753.7a1.4,1.4,0,0,0,.594-.148,1.2,1.2,0,0,0,.3-.52,2.058,2.058,0,0,0,.074-.668V86.391a.675.675,0,0,0-.3-.594.917.917,0,0,0-.594-.3h-8.832a7.731,7.731,0,0,0-5.641,2.3,7.614,7.614,0,0,0-2.3,5.641v19.445a7.732,7.732,0,0,0,2.3,5.641,7.614,7.614,0,0,0,5.641,2.3h8.832a1.4,1.4,0,0,0,.594-.148,1.2,1.2,0,0,0,.3-.52,2.055,2.055,0,0,0,.074-.668v-.742A1.718,1.718,0,0,1,754.59,118.082Z" transform="translate(-737 -85.5)" fill="#1d4259"/>
    <path id="Path_81" data-name="Path 81" d="M783.311,102.212,768.319,87.22a1.781,1.781,0,0,0-3.043,1.262v7.941H752.881a1.739,1.739,0,0,0-1.262.52,1.628,1.628,0,0,0-.52,1.262v10.613a1.738,1.738,0,0,0,.52,1.262,1.628,1.628,0,0,0,1.262.52h12.394v7.941a1.738,1.738,0,0,0,.52,1.262,1.628,1.628,0,0,0,1.262.52,1.738,1.738,0,0,0,1.262-.52l14.992-14.992a1.629,1.629,0,0,0,.52-1.262A1.842,1.842,0,0,0,783.311,102.212Z" transform="translate(-740.635 -85.809)" fill="#1d4259"/>
  </g>
</svg>
