<svg xmlns="http://www.w3.org/2000/svg" width="26" height="22.173" viewBox="0 0 26 22.173">
  <g id="Group_125" data-name="Group 125" transform="translate(-129 -23)">
    <path id="Path_743" data-name="Path 743" d="M661.371,226.386l-3.155-1.97c-.64-.4-1.159-.114-1.159.642v4.1c0,.756.519,1.043,1.159.643l3.155-1.971A.787.787,0,0,0,661.371,226.386Zm20.318-1.328H665.267a1.368,1.368,0,0,0-1.368,1.368v1.368a1.368,1.368,0,0,0,1.368,1.368h16.422a1.369,1.369,0,0,0,1.368-1.368v-1.368A1.368,1.368,0,0,0,681.689,225.058Zm-23.472,12.96,3.155-1.971c.64-.4.611-1-.065-1.338l-3.025-1.513a.778.778,0,0,0-1.224.756v3.422C657.057,238.13,657.576,238.418,658.216,238.018Zm23.472-4.75H665.267a1.368,1.368,0,0,0-1.368,1.369v1.368a1.368,1.368,0,0,0,1.368,1.369h16.422a1.369,1.369,0,0,0,1.368-1.369v-1.368A1.369,1.369,0,0,0,681.689,233.268Zm-20.318,9.539-3.155-1.971c-.64-.4-1.159-.113-1.159.643v4.106c0,.755.519,1.043,1.159.642l3.155-1.97A.787.787,0,0,0,661.371,242.807Zm20.318-1.328H665.267a1.368,1.368,0,0,0-1.368,1.368v1.369a1.369,1.369,0,0,0,1.368,1.369h16.422a1.369,1.369,0,0,0,1.368-1.369v-1.369A1.368,1.368,0,0,0,681.689,241.479Z" transform="translate(-528.057 -201.234)" fill="#1d4259"/>
  </g>
</svg>
