<svg xmlns="http://www.w3.org/2000/svg" width="22.832" height="25.648" viewBox="0 0 22.832 25.648">
  <g id="purchases" transform="translate(-74 -181)">
    <g id="pruchases_icon" transform="translate(74 181)">
      <circle id="Ellipse_148" data-name="Ellipse 148" cx="2.717" cy="2.717" r="2.717" transform="translate(1.99 20.215)" fill="#1d4259"/>
      <circle id="Ellipse_149" data-name="Ellipse 149" cx="2.717" cy="2.717" r="2.717" transform="translate(14.934 20.215)" fill="#1d4259"/>
      <path id="Path_739" data-name="Path 739" d="M215.934,57.106l-15.8.856a3.023,3.023,0,0,1-2.987-2.652l-.649-4.559a3.026,3.026,0,0,1,2.679-3.613l16.691-2.37a3.05,3.05,0,0,1,3.155,3.917l-1.8,7.362A1.584,1.584,0,0,1,215.934,57.106Z" transform="translate(-196.291 -39.368)" fill="#1d4259"/>
      <rect id="Rectangle_329" data-name="Rectangle 329" width="4.507" height="6.017" rx="0.929" transform="translate(0 0.638) rotate(-8.143)" fill="#1d4259"/>
    </g>
  </g>
</svg>
