<svg xmlns="http://www.w3.org/2000/svg" width="280.052" height="79.214" viewBox="0 0 280.052 79.214">
  <g id="Group_104" data-name="Group 104" transform="translate(-92.252 -36)">
    <path id="Path_740" data-name="Path 740" d="M95.01,469.637l11.509.137,4.146-3.081-4.529-3.533-11.051-.13Z" transform="translate(126.99 -358.117)" fill="#ff524f"/>
    <rect id="Rectangle_332" data-name="Rectangle 332" width="48.308" height="48.801" transform="translate(103.361 36)" fill="#ab7a45"/>
    <path id="Path_741" data-name="Path 741" d="M431.123,129.35,414.4,112.61v47.668l16.723,17.589Z" transform="translate(-236.06 -65.022)" fill="#e8bf7c"/>
    <path id="Path_742" data-name="Path 742" d="M162.93,185.309,179.653,201.2V152.68L162.93,135.94Z" transform="translate(-70.678 -88.352)" fill="#e8bf7c"/>
    <rect id="Rectangle_333" data-name="Rectangle 333" width="48.308" height="48.801" transform="translate(131.033 64.045)" fill="#d0a56b"/>
    <text id="EL_ENCANTO" data-name="EL ENCANTO" transform="translate(223.304 64.045)" font-size="21" font-family="SegoeUI, Segoe UI" letter-spacing="0.02em"><tspan x="12.072" y="23">EL ENCAN</tspan><tspan y="23">T</tspan><tspan y="23">O</tspan></text>
    <path id="Path_743" data-name="Path 743" d="M500.806,463.11H489.159L485,466.277l4.625,3.519h11.181Z" transform="translate(-129.49 -358.169)" fill="#ff524f"/>
    <path id="Path_744" data-name="Path 744" d="M155.6,451.09h.729v10.178h5.659v.654H155.6Z" transform="translate(87.143 -350.264)"/>
    <path id="Path_745" data-name="Path 745" d="M186.827,453.658H182.88v-.637h4.676v7.894h-.729Zm-.579-3.338a.774.774,0,1,1,.774.787.753.753,0,0,1-.774-.787Z" transform="translate(69.202 -349.258)"/>
    <path id="Path_746" data-name="Path 746" d="M217.536,467.55l.041-1.575h-.034a4.033,4.033,0,0,1-2.828,1.369c-2.054,0-3.475-1.465-3.475-4.125a3.854,3.854,0,0,1,3.711-4.159,3.772,3.772,0,0,1,2.585,1.109h.038l.086-.914h.606V470.72h-.729Zm0-2.287v-4.382a3.614,3.614,0,0,0-2.53-1.161,3.25,3.25,0,0,0-3,3.509c0,2.1,1.054,3.482,2.817,3.482A3.858,3.858,0,0,0,217.536,465.263Z" transform="translate(50.55 -355.506)"/>
    <path id="Path_747" data-name="Path 747" d="M242,464.576V459.67h.729v4.82c0,1.76.657,2.612,2.225,2.612,1.113,0,1.941-.558,3.019-1.784V459.67h.729v7.894h-.62l-.079-1.53h-.065a4.106,4.106,0,0,1-3.105,1.712C242.911,467.76,242,466.726,242,464.576Z" transform="translate(30.321 -355.907)"/>
    <path id="Path_748" data-name="Path 748" d="M276.247,453.658H272.3v-.637h4.69v7.894h-.733Zm-.579-3.338a.774.774,0,1,1,.774.787.753.753,0,0,1-.774-.787Z" transform="translate(10.394 -349.258)"/>
    <path id="Path_749" data-name="Path 749" d="M300.67,456.091a3.691,3.691,0,0,1,6.3-3.047H307l-.041-1.592V448.2h.729v11.821h-.616L307,458.847h-.051a4.078,4.078,0,0,1-2.814,1.369C302.074,460.216,300.67,458.744,300.67,456.091Zm6.292,2.03v-4.382a3.608,3.608,0,0,0-2.53-1.16,3.252,3.252,0,0,0-3,3.509c0,2.1,1.058,3.482,2.818,3.482A3.852,3.852,0,0,0,306.962,458.121Z" transform="translate(-8.264 -348.364)"/>
    <path id="Path_750" data-name="Path 750" d="M331.64,465.234c0-1.766,1.773-2.6,6.053-2.978,0-1.3-.538-2.509-2.345-2.509a5.515,5.515,0,0,0-2.985,1.075l-.342-.537a6.367,6.367,0,0,1,3.423-1.174,2.763,2.763,0,0,1,2.989,3.047V467.2h-.616l-.079-1.181H337.7a5.66,5.66,0,0,1-3.3,1.369C332.982,467.391,331.64,466.71,331.64,465.234Zm6.053.1v-2.523c-4.016.342-5.3,1.116-5.3,2.4,0,1.13,1.061,1.564,2.126,1.564a5.237,5.237,0,0,0,3.177-1.441Z" transform="translate(-28.632 -355.539)"/>
    <path id="Path_751" data-name="Path 751" d="M363.246,459.6V455.3h-2.4v-.565l2.4-.072.1-2.609h.64v2.609h4.2v.637h-4.2v4.358c0,1.537.442,2.455,2.2,2.455a5.478,5.478,0,0,0,2.1-.407l.2.558a6.1,6.1,0,0,1-2.4.49C363.907,462.748,363.246,461.478,363.246,459.6Z" transform="translate(-47.842 -350.896)"/>
    <path id="Path_752" data-name="Path 752" d="M395.477,453.658H391.53v-.637h4.68v7.894h-.733Zm-.579-3.338a.774.774,0,1,1,.774.787.753.753,0,0,1-.774-.787Z" transform="translate(-68.019 -349.258)"/>
    <path id="Path_753" data-name="Path 753" d="M419.9,463.259a3.835,3.835,0,1,1,3.824,4.125A3.823,3.823,0,0,1,419.9,463.259Zm6.884,0c0-2.081-1.28-3.516-3.061-3.516s-3.064,1.434-3.064,3.516,1.284,3.482,3.064,3.482,3.057-1.407,3.057-3.482Z" transform="translate(-86.677 -355.532)"/>
    <path id="Path_754" data-name="Path 754" d="M451.53,459.3h.616l.079,1.517h.065a4.267,4.267,0,0,1,3.115-1.712c1.914,0,2.835,1.027,2.835,3.173v4.916h-.729v-4.82c0-1.763-.661-2.612-2.222-2.612-1.119,0-1.893.582-3.026,1.777v5.655h-.733Z" transform="translate(-107.479 -355.532)"/>
  </g>
</svg>
