<svg xmlns="http://www.w3.org/2000/svg" xmlns:xlink="http://www.w3.org/1999/xlink" width="138" height="138" viewBox="0 0 138 138">
  <defs>
    <filter id="Rectangle" x="0" y="0" width="138" height="138" filterUnits="userSpaceOnUse">
      <feOffset dy="10" input="SourceAlpha"/>
      <feGaussianBlur stdDeviation="15" result="blur"/>
      <feFlood flood-opacity="0.161"/>
      <feComposite operator="in" in2="blur"/>
      <feComposite in="SourceGraphic"/>
    </filter>
  </defs>
  <g id="Grupo_104" data-name="Grupo 104" transform="translate(-844 -952)">
    <g id="Group_1" data-name="Group 1" transform="translate(889.336 987.324)">
      <g transform="matrix(1, 0, 0, 1, -45.34, -35.32)" filter="url(#Rectangle)">
        <rect id="Rectangle-2" data-name="Rectangle" width="48" height="48" rx="10" transform="translate(45 35)" fill="#fff"/>
      </g>
      <path id="arrow_left" data-name="arrow left" d="M9.056,7.315,15.9.384a1.278,1.278,0,0,1,1.827,0,1.331,1.331,0,0,1,0,1.854L9.973,10.091a1.281,1.281,0,0,1-1.784.038L.377,2.244A1.327,1.327,0,0,1,.377.39,1.278,1.278,0,0,1,2.2.39Z" transform="translate(29.461 16.117) rotate(90)" fill="#605bb2"/>
    </g>
  </g>
</svg>
