<svg id="Group_96" data-name="Group 96" xmlns="http://www.w3.org/2000/svg" width="57.346" height="57.346" viewBox="0 0 57.346 57.346">
  <g id="heart_icon_group" data-name="heart icon group" transform="translate(0)">
    <g id="favourite_icon" data-name="favourite icon" transform="translate(0 0)">
      <rect id="Rectangle_1" data-name="Rectangle 1" width="57.346" height="57.346" rx="24" fill="#ff524f"/>
    </g>
  </g>
  <path id="Path_96" data-name="Path 96" d="M26.559,18.312c-.167-.277-.6-.444-1.254-.766s-3.9-1.92-4.495-2.142-1.043-.333-1.476.333-1.7,2.131-2.086,2.575-.766.488-1.421.166a18.008,18.008,0,0,1-5.283-3.263,20.115,20.115,0,0,1-3.662-4.55.955.955,0,0,1,.26-1.325l.029-.018c.3-.3.655-.766.988-1.11A4.81,4.81,0,0,0,8.813,7.1a1.2,1.2,0,0,0,0-1.11c-.167-.322-1.476-3.563-2.02-4.872S5.684.011,5.306.011H4.052A2.4,2.4,0,0,0,2.3.832,7.388,7.388,0,0,0,0,6.315c0,3.241,2.353,6.359,2.674,6.8s4.639,7.07,11.231,9.922a39.918,39.918,0,0,0,3.751,1.387,9.057,9.057,0,0,0,4.14.255c1.265-.189,3.885-1.587,4.439-3.119A5.438,5.438,0,0,0,26.559,18.312Z" transform="matrix(0.899, 0.438, -0.438, 0.899, 22.124, 12.226)" fill="#fff" fill-rule="evenodd"/>
</svg>
