<svg id="Group_97" data-name="Group 97" xmlns="http://www.w3.org/2000/svg" width="57.346" height="57.346" viewBox="0 0 57.346 57.346">
  <g id="heart_icon_group" data-name="heart icon group" transform="translate(0)">
    <g id="favourite_icon" data-name="favourite icon" transform="translate(0 0)">
      <rect id="Rectangle_1" data-name="Rectangle 1" width="57.346" height="57.346" rx="24" fill="#605bb2"/>
    </g>
  </g>
  <g id="whatsApp-6" transform="translate(14.878 14.878)">
    <path id="Path_90" data-name="Path 90" d="M914.81-182.094l1.917-7a13.519,13.519,0,0,1,4.966-18.463,13.52,13.52,0,0,1,18.463,4.967,13.519,13.519,0,0,1-4.967,18.462,13.52,13.52,0,0,1-6.746,1.8h0a13.5,13.5,0,0,1-6.463-1.643Zm7.5-4.324.411.24a11.179,11.179,0,0,0,5.7,1.569h0a11.237,11.237,0,0,0,11.237-11.237,11.238,11.238,0,0,0-3.291-7.946,11.122,11.122,0,0,0-7.94-3.3,11.242,11.242,0,0,0-11.243,11.242,11.241,11.241,0,0,0,1.717,5.973l.268.422-1.141,4.147Z" transform="translate(-914.81 209.368)" fill="#fff"/>
    <path id="Path_91" data-name="Path 91" d="M940.37-187.112c-.086-.143-.308-.228-.645-.394s-2-.987-2.31-1.1-.536-.171-.759.171-.873,1.1-1.072,1.323-.394.251-.73.086a9.255,9.255,0,0,1-2.715-1.677,10.339,10.339,0,0,1-1.882-2.339.491.491,0,0,1,.133-.681l.015-.009c.154-.154.337-.394.508-.57a2.474,2.474,0,0,0,.336-.57.614.614,0,0,0,0-.57c-.086-.165-.759-1.831-1.038-2.5s-.57-.57-.764-.57H928.8a1.236,1.236,0,0,0-.9.422,3.8,3.8,0,0,0-1.181,2.818,6.616,6.616,0,0,0,1.375,3.5,15.045,15.045,0,0,0,5.773,5.1,20.491,20.491,0,0,0,1.928.713,4.655,4.655,0,0,0,2.128.131,3.488,3.488,0,0,0,2.282-1.6A2.8,2.8,0,0,0,940.37-187.112Z" transform="translate(-919.926 203.851)" fill="#fff" fill-rule="evenodd"/>
  </g>
</svg>
