<svg xmlns="http://www.w3.org/2000/svg" width="592.439" height="324.345" viewBox="0 0 592.439 324.345">
  <g id="Group_115" data-name="Group 115" transform="translate(-139.703 -472.17)">
    <g id="Group_90" data-name="Group 90" transform="translate(139.703 472.17)">
      <path id="Path_1" data-name="Path 1" d="M101.842,410.016c0,4.177,148.737,7.562,332.216,7.562s260.223-3.385,260.223-7.562-76.745-7.56-260.223-7.56S101.842,405.841,101.842,410.016Z" transform="translate(-101.842 -93.232)" fill="#1d4259"/>
      <path id="Path_2" data-name="Path 2" d="M187.9,365.464a42.511,42.511,0,0,0,0,85.022H199.69V365.464Z" transform="translate(305.673 -130.2)" fill="#0f222c"/>
      <path id="Path_3" data-name="Path 3" d="M298.905,365.464a42.511,42.511,0,1,0,0,85.022h11.784V365.464Z" transform="translate(-27.251 -130.2)" fill="#0f222c"/>
      <path id="Path_4" data-name="Path 4" d="M187.9,365.464a42.511,42.511,0,0,0,0,85.022H199.69V365.464Z" transform="translate(305.673 -130.2)" fill="#0f222c"/>
      <path id="Path_5" data-name="Path 5" d="M255.268,404.006a42.51,42.51,0,1,0-42.51,42.512A42.512,42.512,0,0,0,255.268,404.006Z" transform="translate(200.403 -134.165)" fill="#0f222c"/>
      <path id="Path_6" data-name="Path 6" d="M347.532,361.5a42.511,42.511,0,0,0,0,85.022H359.32V361.5Z" transform="translate(-173.109 -134.165)" fill="#0f222c"/>
      <path id="Path_7" data-name="Path 7" d="M368.781,404.006a42.51,42.51,0,1,0-42.508,42.512A42.51,42.51,0,0,0,368.781,404.006Z" transform="translate(-140.062 -134.165)" fill="#0f222c"/>
      <g id="Group_1" data-name="Group 1" transform="translate(0 0)">
        <rect id="Rectangle_1" data-name="Rectangle 1" width="218.028" height="75.302" transform="translate(65.41)" fill="#e8bf7c"/>
        <rect id="Rectangle_2" data-name="Rectangle 2" width="174.423" height="174.424" transform="translate(196.227 75.101)" fill="#e8bf7c"/>
        <rect id="Rectangle_3" data-name="Rectangle 3" width="26.792" height="174.423" transform="translate(370.65 148.917) rotate(90)" fill="#d0a569"/>
        <rect id="Rectangle_4" data-name="Rectangle 4" width="36.391" height="26.792" transform="translate(265.243 148.917)" fill="#ab7a45"/>
        <rect id="Rectangle_5" data-name="Rectangle 5" width="26.792" height="174.424" transform="translate(270.043 75.101)" fill="#d0a569"/>
        <rect id="Rectangle_6" data-name="Rectangle 6" width="130.817" height="174.424" transform="translate(65.41 75.101)" fill="#d0a56b"/>
        <rect id="Rectangle_7" data-name="Rectangle 7" width="26.792" height="130.817" transform="translate(196.227 148.917) rotate(90)" fill="#ab7a45"/>
        <rect id="Rectangle_8" data-name="Rectangle 8" width="36.391" height="26.792" transform="translate(113.152 148.917)" fill="#986e3e"/>
        <path id="Path_8" data-name="Path 8" d="M496.24,317.955H365.423l-65.41-65.018H430.831Z" transform="translate(-300.013 -242.653)" fill="#a87944"/>
        <rect id="Rectangle_9" data-name="Rectangle 9" width="26.792" height="174.424" transform="translate(117.952 75.101)" fill="#ab7a45"/>
        <path id="Path_9" data-name="Path 9" d="M417.371,317.754H390.579l-64.817-64.817h26.792Z" transform="translate(-272.628 -242.653)" fill="#986e3e"/>
        <path id="Path_10" data-name="Path 10" d="M180.058,318.05H354.481l65.408-65.408H245.466Z" transform="translate(16.169 -242.949)" fill="#d0a56b"/>
        <path id="Path_11" data-name="Path 11" d="M216.977,318.05h26.792l65.409-65.408H282.386Z" transform="translate(53.066 -242.949)" fill="#ab7a45"/>
      </g>
      <path id="Rectangle_10" data-name="Rectangle 10" d="M0,0H392.017a4.2,4.2,0,0,1,4.2,4.2V24.054a4.2,4.2,0,0,1-4.2,4.2H0a0,0,0,0,1,0,0V0A0,0,0,0,1,0,0Z" transform="translate(196.227 249.525)" fill="#1d4259"/>
      <path id="Path_12" data-name="Path 12" d="M319.436,459.781h-213.4V285.356H212.971a62.843,62.843,0,0,1,52.073,27.661l43.622,64.559a62.857,62.857,0,0,1,10.771,35.185Z" transform="translate(264.613 -210.256)" fill="#ff524f"/>
      <path id="Path_13" data-name="Path 13" d="M119.561,378.754V295.175h55.716A43.155,43.155,0,0,1,211.085,314.2l43.62,64.557Z" transform="translate(302.308 -200.443)" fill="#f2f2f2"/>
      <rect id="Rectangle_11" data-name="Rectangle 11" width="25.698" height="174.424" transform="translate(370.65 75.101)" fill="#ce3836"/>
      <path id="Path_14" data-name="Path 14" d="M280.626,361.5a50.445,50.445,0,0,0-50.446,50.446H331.069A50.444,50.444,0,0,0,280.626,361.5Z" transform="translate(4.778 -134.165)" fill="#0f222c"/>
      <path id="Path_15" data-name="Path 15" d="M169.628,361.5a50.446,50.446,0,0,0-50.446,50.446H220.071A50.443,50.443,0,0,0,169.628,361.5Z" transform="translate(337.699 -134.165)" fill="#0f222c"/>
      <path id="Path_16" data-name="Path 16" d="M320.152,407.976a42.511,42.511,0,1,0-42.512,42.51A42.511,42.511,0,0,0,320.152,407.976Z" transform="translate(5.798 -130.2)" fill="#222846"/>
      <ellipse id="Ellipse_1" data-name="Ellipse 1" cx="20.917" cy="20.917" rx="20.917" ry="20.917" transform="translate(266.13 301.764) rotate(-99.187)" fill="#f2f2f2"/>
      <ellipse id="Ellipse_2" data-name="Ellipse 2" cx="42.511" cy="42.511" rx="42.511" ry="42.511" transform="translate(462.851 235.265)" fill="#222846"/>
      <ellipse id="Ellipse_3" data-name="Ellipse 3" cx="20.917" cy="20.917" rx="20.917" ry="20.917" transform="translate(488.053 301.764) rotate(-99.187)" fill="#f2f2f2"/>
      <rect id="Rectangle_12" data-name="Rectangle 12" width="18.219" height="17.34" transform="translate(178.008 218.66)" fill="#ce3836"/>
      <rect id="Rectangle_13" data-name="Rectangle 13" width="18.219" height="17.34" transform="translate(196.227 218.66)" fill="#ff524f"/>
      <rect id="Rectangle_14" data-name="Rectangle 14" width="18.219" height="17.34" transform="translate(65.41 218.66)" fill="#ce3836"/>
      <g id="Group_2" data-name="Group 2" transform="translate(421.868 185.308)">
        <path id="Rectangle_15" data-name="Rectangle 15" d="M0,0H27.424a0,0,0,0,1,0,0V6.477a2.665,2.665,0,0,1-2.665,2.665H2.665A2.665,2.665,0,0,1,0,6.477V0A0,0,0,0,1,0,0Z" transform="translate(0)" fill="#ce3836"/>
        <path id="Rectangle_16" data-name="Rectangle 16" d="M0,0H27.424a0,0,0,0,1,0,0V4.214a2.665,2.665,0,0,1-2.665,2.665H2.665A2.665,2.665,0,0,1,0,4.214V0A0,0,0,0,1,0,0Z" transform="translate(0)" fill="#222846"/>
      </g>
      <path id="Path_17" data-name="Path 17" d="M106.038,369.775A16.563,16.563,0,0,1,122.6,353.212v33.125A16.563,16.563,0,0,1,106.038,369.775Z" transform="translate(461.449 -142.444)" fill="#f2f2f2"/>
      <path id="Rectangle_17" data-name="Rectangle 17" d="M4.2,0H143.4a4.2,4.2,0,0,1,4.2,4.2V24.054a4.2,4.2,0,0,1-4.2,4.2H4.2a4.2,4.2,0,0,1-4.2-4.2V4.2A4.2,4.2,0,0,1,4.2,0Z" transform="translate(57.02 249.525)" fill="#1b3241"/>
      <path id="Path_18" data-name="Path 18" d="M301.566,382.661a6,6,0,1,1,6,6A6,6,0,0,1,301.566,382.661Z" transform="translate(-120.449 -119.012)" fill="#f2f2f2"/>
      <path id="Path_19" data-name="Path 19" d="M309.739,381.161a3,3,0,1,1,3,3A3,3,0,0,1,309.739,381.161Z" transform="translate(-138.96 -117.512)" fill="#f2f2f2"/>
      <path id="Path_20" data-name="Path 20" d="M369.889,382.661a6,6,0,1,1-6-6A6,6,0,0,1,369.889,382.661Z" transform="translate(-289.369 -119.012)" fill="#f2f2f2"/>
      <path id="Path_21" data-name="Path 21" d="M358.716,381.161a3,3,0,1,1-3-3A3,3,0,0,1,358.716,381.161Z" transform="translate(-267.857 -117.512)" fill="#f2f2f2"/>
    </g>
  </g>
</svg>
