<svg id="Group_85" data-name="Group 85" xmlns="http://www.w3.org/2000/svg" width="48.997" height="48.997" viewBox="0 0 48.997 48.997">
  <g id="heart_icon_group" data-name="heart icon group" transform="translate(0 0)">
    <g id="favourite_icon" data-name="favourite icon" transform="translate(0 0)">
      <rect id="Rectangle_1" data-name="Rectangle 1" width="48.997" height="48.997" rx="24" fill="#b22825"/>
    </g>
  </g>
  <g id="Google_6" data-name="Google 6" transform="translate(12.712 15.89)">
    <path id="Path_94" data-name="Path 94" d="M914.815-403.2a7.322,7.322,0,0,1,6.989-7.359,7.369,7.369,0,0,1,5.293,1.818c-.6.658-1.214,1.316-1.867,1.949a5.182,5.182,0,0,0-4.357-.848,4.657,4.657,0,0,0-2.819,5.953,4.658,4.658,0,0,0,5.953,2.819,4.073,4.073,0,0,0,2.393-2.793c-1.408-.024-2.817,0-4.225-.049v-2.51h7.047a8.362,8.362,0,0,1-1.491,5.892,7.278,7.278,0,0,1-7.949,2.12,7.369,7.369,0,0,1-4.966-6.969" transform="translate(-914.81 410.57)" fill="#fff"/>
    <path id="Path_95" data-name="Path 95" d="M951.576-401.964h2.115v2.105H955.8v2.1h-2.105v2.11h-2.1v-2.105H949.49v-2.1H951.6v-2.105" transform="translate(-932.588 406.158)" fill="#fff"/>
  </g>
</svg>
