<svg id="Group_83" data-name="Group 83" xmlns="http://www.w3.org/2000/svg" width="48.997" height="48.997" viewBox="0 0 48.997 48.997">
  <g id="heart_icon_group" data-name="heart icon group" transform="translate(0)">
    <g id="favourite_icon" data-name="favourite icon" transform="translate(0 0)">
      <rect id="Rectangle_1" data-name="Rectangle 1" width="48.997" height="48.997" rx="24" fill="#1d4259"/>
    </g>
  </g>
  <g id="Group_79" data-name="Group 79" transform="translate(12.712 12.712)">
    <path id="Path_92" data-name="Path 92" d="M401.389-312.163c3.095,0,3.465,0,4.688.068a6.291,6.291,0,0,1,2.154.4,3.853,3.853,0,0,1,2.2,2.2,6.3,6.3,0,0,1,.4,2.154c.058,1.223.068,1.594.068,4.688s0,3.465-.068,4.688a6.3,6.3,0,0,1-.4,2.154,3.856,3.856,0,0,1-2.2,2.2,6.3,6.3,0,0,1-2.154.4c-1.223.059-1.589.068-4.688.068s-3.465,0-4.689-.068a6.3,6.3,0,0,1-2.154-.4,3.856,3.856,0,0,1-2.2-2.2,6.3,6.3,0,0,1-.4-2.154c-.058-1.223-.068-1.594-.068-4.688s0-3.465.068-4.688a6.3,6.3,0,0,1,.4-2.154,3.853,3.853,0,0,1,2.2-2.2,6.291,6.291,0,0,1,2.154-.4c1.223-.059,1.594-.068,4.689-.068m0-2.091c-3.148,0-3.543,0-4.781.068a8.523,8.523,0,0,0-2.817.541,5.9,5.9,0,0,0-3.412,3.412,8.525,8.525,0,0,0-.541,2.817c-.054,1.238-.068,1.633-.068,4.781s0,3.543.068,4.781a8.527,8.527,0,0,0,.541,2.817,5.9,5.9,0,0,0,3.412,3.412,8.524,8.524,0,0,0,2.817.541c1.238.054,1.633.068,4.781.068s3.543,0,4.781-.068a8.524,8.524,0,0,0,2.817-.541,5.9,5.9,0,0,0,3.412-3.412,8.524,8.524,0,0,0,.541-2.817c.054-1.238.068-1.633.068-4.781s0-3.543-.068-4.781a8.522,8.522,0,0,0-.541-2.817,5.9,5.9,0,0,0-3.412-3.412,8.524,8.524,0,0,0-2.817-.541C404.932-314.239,404.537-314.254,401.389-314.254Z" transform="translate(-389.77 314.254)" fill="#fff"/>
    <path id="Path_93" data-name="Path 93" d="M407.346-302.684a5.956,5.956,0,0,0-5.956,5.956,5.956,5.956,0,0,0,5.956,5.956,5.956,5.956,0,0,0,5.956-5.956h0A5.956,5.956,0,0,0,407.346-302.684Zm0,9.82a3.865,3.865,0,0,1-3.865-3.865,3.865,3.865,0,0,1,3.865-3.865,3.865,3.865,0,0,1,3.865,3.865h0A3.865,3.865,0,0,1,407.346-292.864Z" transform="translate(-395.727 308.323)" fill="#fff"/>
  </g>
</svg>
