<svg id="Group_82" data-name="Group 82" xmlns="http://www.w3.org/2000/svg" width="48.997" height="48.997" viewBox="0 0 48.997 48.997">
  <g id="heart_icon_group" data-name="heart icon group">
    <g id="favourite_icon" data-name="favourite icon" transform="translate(0 0)">
      <rect id="Rectangle_1" data-name="Rectangle 1" width="48.997" height="48.997" rx="24" fill="#ff524f"/>
    </g>
  </g>
  <path id="Path_96" data-name="Path 96" d="M19.994,13.785c-.125-.209-.451-.334-.944-.577s-2.933-1.445-3.384-1.612-.785-.251-1.111.251-1.278,1.6-1.571,1.938-.576.368-1.069.125a13.556,13.556,0,0,1-3.977-2.456A15.143,15.143,0,0,1,5.181,8.029a.719.719,0,0,1,.2-1L5.4,7.018c.226-.226.493-.577.744-.836a3.62,3.62,0,0,0,.493-.835.9.9,0,0,0,0-.835C6.509,4.269,5.523,1.83,5.114.844S4.278.008,3.994.008H3.05A1.811,1.811,0,0,0,1.73.627,5.562,5.562,0,0,0,0,4.754,9.691,9.691,0,0,0,2.014,9.875c.242.334,3.492,5.322,8.455,7.469a30.027,30.027,0,0,0,2.824,1.044,6.818,6.818,0,0,0,3.116.192c.953-.142,2.924-1.195,3.342-2.348A4.1,4.1,0,0,0,19.994,13.785Z" transform="matrix(0.899, 0.438, -0.438, 0.899, 19.311, 11.123)" fill="#fff" fill-rule="evenodd"/>
</svg>
