<svg xmlns="http://www.w3.org/2000/svg" width="614.817" height="258.659" viewBox="0 0 614.817 258.659">
  <g id="Group_108" data-name="Group 108" transform="translate(-109.249 -410.341)">
    <g id="Group_8" data-name="Group 8" transform="translate(109.249 410.341)">
      <path id="Path_1" data-name="Path 1" d="M101.842,410.3c0,4.334,154.356,7.847,344.764,7.847s270.052-3.513,270.052-7.847-79.644-7.845-270.052-7.845S101.842,405.969,101.842,410.3Z" transform="translate(-101.842 -159.489)" fill="#1d4259"/>
      <path id="Path_2" data-name="Path 2" d="M189.51,365.464a44.117,44.117,0,0,0,0,88.234h12.231V365.464Z" transform="translate(322.711 -199.25)" fill="#0f222c"/>
      <path id="Path_3" data-name="Path 3" d="M300.511,365.464a44.117,44.117,0,1,0,0,88.234H312.74V365.464Z" transform="translate(-18.596 -199.25)" fill="#0f222c"/>
      <path id="Path_4" data-name="Path 4" d="M189.51,365.464a44.117,44.117,0,0,0,0,88.234h12.231V365.464Z" transform="translate(322.711 -199.25)" fill="#0f222c"/>
      <path id="Path_5" data-name="Path 5" d="M258.48,405.612a44.116,44.116,0,1,0-44.116,44.118A44.118,44.118,0,0,0,258.48,405.612Z" transform="translate(214.404 -203.515)" fill="#0f222c"/>
      <path id="Path_6" data-name="Path 6" d="M349.138,361.5a44.117,44.117,0,0,0,0,88.234h12.233V361.5Z" transform="translate(-168.126 -203.515)" fill="#0f222c"/>
      <path id="Path_7" data-name="Path 7" d="M371.993,405.612a44.116,44.116,0,1,0-44.114,44.118A44.116,44.116,0,0,0,371.993,405.612Z" transform="translate(-134.634 -203.515)" fill="#0f222c"/>
      <g id="Group_1" data-name="Group 1" transform="translate(67.881 0.001)">
        <path id="Path_22" data-name="Path 22" d="M226.264,37.664h0Z" transform="translate(0 -37.455)" fill="#e8bf7c"/>
        <rect id="Rectangle_2" data-name="Rectangle 2" width="181.012" height="181.012" transform="translate(135.758)" fill="#e8bf7c"/>
        <rect id="Rectangle_3" data-name="Rectangle 3" width="27.804" height="181.012" transform="translate(316.77 76.604) rotate(90)" fill="#d0a569"/>
        <rect id="Rectangle_4" data-name="Rectangle 4" width="37.765" height="27.804" transform="translate(207.382 76.604)" fill="#ab7a45"/>
        <rect id="Rectangle_5" data-name="Rectangle 5" width="27.804" height="181.012" transform="translate(212.362)" fill="#d0a569"/>
        <rect id="Rectangle_6" data-name="Rectangle 6" width="135.758" height="181.012" transform="translate(0)" fill="#d0a56b"/>
        <rect id="Rectangle_7" data-name="Rectangle 7" width="27.804" height="135.758" transform="translate(135.758 76.604) rotate(90)" fill="#ab7a45"/>
        <rect id="Rectangle_8" data-name="Rectangle 8" width="37.765" height="27.804" transform="translate(49.546 76.604)" fill="#986e3e"/>
        <path id="Path_8" data-name="Path 8" d="M468.486,285.457h0Z" transform="translate(-332.728 -285.248)" fill="#a87944"/>
        <rect id="Rectangle_9" data-name="Rectangle 9" width="27.804" height="181.012" transform="translate(54.526 0)" fill="#ab7a45"/>
        <path id="Path_9" data-name="Path 9" d="M385.986,285.356h0Z" transform="translate(-303.655 -285.356)" fill="#986e3e"/>
        <path id="Path_10" data-name="Path 10" d="M249.912,285.356h0Z" transform="translate(-114.154 -285.356)" fill="#d0a56b"/>
        <path id="Path_11" data-name="Path 11" d="M216.977,285.356h0Z" transform="translate(-4.615 -285.356)" fill="#ab7a45"/>
      </g>
      <path id="Rectangle_10" data-name="Rectangle 10" d="M0,0H406.983a4.2,4.2,0,0,1,4.2,4.2V25.121a4.2,4.2,0,0,1-4.2,4.2H0a0,0,0,0,1,0,0V0A0,0,0,0,1,0,0Z" transform="translate(203.639 181.013)" fill="#1d4259"/>
      <path id="Path_12" data-name="Path 12" d="M327.5,466.37H106.038V285.356H217.01a65.217,65.217,0,0,1,54.04,28.706l45.269,67A65.231,65.231,0,0,1,327.5,417.573Z" transform="translate(278.614 -285.356)" fill="#ff524f"/>
      <path id="Path_13" data-name="Path 13" d="M119.561,381.911V295.175h57.82a44.785,44.785,0,0,1,37.161,19.74l45.267,67Z" transform="translate(318.242 -274.802)" fill="#f2f2f2"/>
      <rect id="Rectangle_11" data-name="Rectangle 11" width="26.668" height="181.012" transform="translate(384.651 0.001)" fill="#ce3836"/>
      <path id="Path_14" data-name="Path 14" d="M282.531,361.5a52.35,52.35,0,0,0-52.351,52.351h104.7A52.35,52.35,0,0,0,282.531,361.5Z" transform="translate(13.652 -203.515)" fill="#0f222c"/>
      <path id="Path_15" data-name="Path 15" d="M171.533,361.5a52.352,52.352,0,0,0-52.351,52.351h104.7A52.348,52.348,0,0,0,171.533,361.5Z" transform="translate(354.957 -203.515)" fill="#0f222c"/>
      <path id="Path_16" data-name="Path 16" d="M323.364,409.582A44.117,44.117,0,1,0,279.246,453.7,44.117,44.117,0,0,0,323.364,409.582Z" transform="translate(14.898 -199.25)" fill="#222846"/>
      <ellipse id="Ellipse_1" data-name="Ellipse 1" cx="21.707" cy="21.707" rx="21.707" ry="21.707" transform="translate(276.182 235.225) rotate(-99.187)" fill="#f2f2f2"/>
      <ellipse id="Ellipse_2" data-name="Ellipse 2" cx="44.117" cy="44.117" rx="44.117" ry="44.117" transform="translate(480.334 166.214)" fill="#222846"/>
      <ellipse id="Ellipse_3" data-name="Ellipse 3" cx="21.707" cy="21.707" rx="21.707" ry="21.707" transform="translate(506.488 235.225) rotate(-99.187)" fill="#f2f2f2"/>
      <rect id="Rectangle_12" data-name="Rectangle 12" width="18.907" height="17.995" transform="translate(184.732 148.982)" fill="#ce3836"/>
      <rect id="Rectangle_13" data-name="Rectangle 13" width="18.907" height="17.995" transform="translate(203.639 148.982)" fill="#ff524f"/>
      <rect id="Rectangle_14" data-name="Rectangle 14" width="18.907" height="17.995" transform="translate(67.881 148.982)" fill="#ce3836"/>
      <g id="Group_2" data-name="Group 2" transform="translate(437.803 114.37)">
        <path id="Rectangle_15" data-name="Rectangle 15" d="M0,0H28.46a0,0,0,0,1,0,0V6.822a2.665,2.665,0,0,1-2.665,2.665H2.665A2.665,2.665,0,0,1,0,6.822V0A0,0,0,0,1,0,0Z" transform="translate(0)" fill="#ce3836"/>
        <path id="Rectangle_16" data-name="Rectangle 16" d="M0,0H28.46a0,0,0,0,1,0,0V4.473a2.665,2.665,0,0,1-2.665,2.665H2.665A2.665,2.665,0,0,1,0,4.474V0A0,0,0,0,1,0,0Z" transform="translate(0)" fill="#222846"/>
      </g>
      <path id="Path_17" data-name="Path 17" d="M106.038,370.4a17.189,17.189,0,0,1,17.188-17.188v34.376A17.189,17.189,0,0,1,106.038,370.4Z" transform="translate(482.884 -212.42)" fill="#f2f2f2"/>
      <path id="Rectangle_17" data-name="Rectangle 17" d="M4.2,0h144.78a4.2,4.2,0,0,1,4.2,4.2V25.121a4.2,4.2,0,0,1-4.2,4.2H4.2a4.2,4.2,0,0,1-4.2-4.2V4.2A4.2,4.2,0,0,1,4.2,0Z" transform="translate(59.174 181.013)" fill="#1b3241"/>
      <path id="Path_18" data-name="Path 18" d="M301.566,382.888a6.229,6.229,0,1,1,6.229,6.229A6.229,6.229,0,0,1,301.566,382.888Z" transform="translate(-113.608 -187.217)" fill="#f2f2f2"/>
      <path id="Path_19" data-name="Path 19" d="M309.739,381.274a3.114,3.114,0,1,1,3.114,3.114A3.114,3.114,0,0,1,309.739,381.274Z" transform="translate(-132.51 -185.604)" fill="#f2f2f2"/>
      <path id="Path_20" data-name="Path 20" d="M370.343,382.888a6.229,6.229,0,1,1-6.229-6.229A6.227,6.227,0,0,1,370.343,382.888Z" transform="translate(-286.781 -187.217)" fill="#f2f2f2"/>
      <path id="Path_21" data-name="Path 21" d="M358.943,381.274a3.114,3.114,0,1,1-3.115-3.114A3.115,3.115,0,0,1,358.943,381.274Z" transform="translate(-264.652 -185.604)" fill="#f2f2f2"/>
    </g>
  </g>
</svg>
