<svg id="Group_81" data-name="Group 81" xmlns="http://www.w3.org/2000/svg" width="48.997" height="48.997" viewBox="0 0 48.997 48.997">
  <g id="heart_icon_group" data-name="heart icon group" transform="translate(0)">
    <g id="favourite_icon" data-name="favourite icon" transform="translate(0 0)">
      <rect id="Rectangle_1" data-name="Rectangle 1" width="48.997" height="48.997" rx="24" fill="#605bb2"/>
    </g>
  </g>
  <path id="Twitter-6" d="M622.993-202.572a9.67,9.67,0,0,1-2.734.751,4.782,4.782,0,0,0,2.1-2.637,9.563,9.563,0,0,1-3.026,1.155,4.761,4.761,0,0,0-6.731-.21,4.762,4.762,0,0,0-1.5,3.465,4.979,4.979,0,0,0,.122,1.087,13.539,13.539,0,0,1-9.816-4.947,4.761,4.761,0,0,0,1.462,6.336,4.769,4.769,0,0,1-2.159-.595v.063a4.762,4.762,0,0,0,3.821,4.664,4.851,4.851,0,0,1-2.149.083,4.757,4.757,0,0,0,4.445,3.3,9.555,9.555,0,0,1-5.907,2.027,9.715,9.715,0,0,1-1.136-.068,13.431,13.431,0,0,0,7.311,2.14,13.439,13.439,0,0,0,13.544-13.539v-.619A9.655,9.655,0,0,0,622.993-202.572Z" transform="translate(-587.068 219.105)" fill="#fff"/>
</svg>
