<svg id="Group_84" data-name="Group 84" xmlns="http://www.w3.org/2000/svg" width="48.997" height="48.997" viewBox="0 0 48.997 48.997">
  <g id="heart_icon_group" data-name="heart icon group">
    <g id="favourite_icon" data-name="favourite icon" transform="translate(0 0)">
      <rect id="Rectangle_1" data-name="Rectangle 1" width="48.997" height="48.997" rx="24" fill="#605bb2"/>
    </g>
  </g>
  <g id="whatsApp-6" transform="translate(12.712 12.712)">
    <path id="Path_90" data-name="Path 90" d="M914.81-186.065l1.637-5.985a11.551,11.551,0,0,1,4.243-15.775,11.551,11.551,0,0,1,15.775,4.244,11.551,11.551,0,0,1-4.244,15.774,11.552,11.552,0,0,1-5.764,1.542h0a11.539,11.539,0,0,1-5.522-1.4Zm6.409-3.694.351.2a9.552,9.552,0,0,0,4.874,1.34h0a9.6,9.6,0,0,0,9.6-9.6,9.6,9.6,0,0,0-2.812-6.789,9.5,9.5,0,0,0-6.784-2.817,9.606,9.606,0,0,0-9.606,9.606,9.6,9.6,0,0,0,1.467,5.1l.229.361-.975,3.543Z" transform="translate(-914.81 209.368)" fill="#fff"/>
    <path id="Path_91" data-name="Path 91" d="M938.382-188.482c-.073-.122-.263-.195-.551-.336s-1.711-.843-1.974-.941-.458-.146-.648.146-.746.936-.916,1.131-.336.214-.624.073a7.908,7.908,0,0,1-2.32-1.433,8.835,8.835,0,0,1-1.608-2,.419.419,0,0,1,.114-.582l.013-.008c.132-.132.288-.336.434-.487a2.112,2.112,0,0,0,.287-.487.525.525,0,0,0,0-.487c-.073-.141-.648-1.564-.887-2.14s-.487-.487-.653-.487H928.5a1.056,1.056,0,0,0-.77.361,3.244,3.244,0,0,0-1.009,2.408,5.652,5.652,0,0,0,1.175,2.988,12.856,12.856,0,0,0,4.932,4.357,17.506,17.506,0,0,0,1.647.609,3.977,3.977,0,0,0,1.818.112,2.981,2.981,0,0,0,1.95-1.369A2.388,2.388,0,0,0,938.382-188.482Z" transform="translate(-920.915 202.784)" fill="#fff" fill-rule="evenodd"/>
  </g>
</svg>
